<svg class="main-svg" xmlns="http://www.w3.org/2000/svg" xmlns:xlink="http://www.w3.org/1999/xlink" width="1000" height="700" style="" viewBox="0 0 1000 700"><rect x="0" y="0" width="1000" height="700" style="fill: rgb(255, 255, 255); fill-opacity: 1;"/><defs id="defs-7386d2"><g class="clips"><clipPath id="clip7386d2xyplot" class="plotclip"><rect width="888" height="80.46000000000001"/></clipPath><clipPath id="clip7386d2x2y2plot" class="plotclip"><rect width="888" height="80.46000000000001"/></clipPath><clipPath id="clip7386d2x3y3plot" class="plotclip"><rect width="888" height="375.48"/></clipPath><clipPath class="axesclip" id="clip7386d2x"><rect x="62" y="0" width="888" height="700"/></clipPath><clipPath class="axesclip" id="clip7386d2y"><rect x="0" y="50" width="1000" height="80.46000000000001"/></clipPath><clipPath class="axesclip" id="clip7386d2xy"><rect x="62" y="50" width="888" height="80.46000000000001"/></clipPath><clipPath class="axesclip" id="clip7386d2y2"><rect x="0" y="160.25999999999996" width="1000" height="80.46000000000001"/></clipPath><clipPath class="axesclip" id="clip7386d2xy2"><rect x="62" y="160.25999999999996" width="888" height="80.46000000000001"/></clipPath><clipPath class="axesclip" id="clip7386d2y3"><rect x="0" y="270.52" width="1000" height="375.48"/></clipPath><clipPath class="axesclip" id="clip7386d2xy3"><rect x="62" y="270.52" width="888" height="375.48"/></clipPath><clipPath class="axesclip" id="clip7386d2x2"><rect x="62" y="0" width="888" height="700"/></clipPath><clipPath class="axesclip" id="clip7386d2x2y"><rect x="62" y="50" width="888" height="80.46000000000001"/></clipPath><clipPath class="axesclip" id="clip7386d2x2y2"><rect x="62" y="160.25999999999996" width="888" height="80.46000000000001"/></clipPath><clipPath class="axesclip" id="clip7386d2x2y3"><rect x="62" y="270.52" width="888" height="375.48"/></clipPath><clipPath class="axesclip" id="clip7386d2x3"><rect x="62" y="0" width="888" height="700"/></clipPath><clipPath class="axesclip" id="clip7386d2x3y"><rect x="62" y="50" width="888" height="80.46000000000001"/></clipPath><clipPath class="axesclip" id="clip7386d2x3y2"><rect x="62" y="160.25999999999996" width="888" height="80.46000000000001"/></clipPath><clipPath class="axesclip" id="clip7386d2x3y3"><rect x="62" y="270.52" width="888" height="375.48"/></clipPath></g><g class="gradients"/><g class="patterns"/></defs><g class="bglayer"><rect class="bg" x="62" y="50" width="888" height="80.46000000000001" style="fill: rgb(229, 236, 246); fill-opacity: 1; stroke-width: 0;"/><rect class="bg" x="62" y="160.25999999999996" width="888" height="80.46000000000001" style="fill: rgb(229, 236, 246); fill-opacity: 1; stroke-width: 0;"/><rect class="bg" x="62" y="270.52" width="888" height="375.48" style="fill: rgb(229, 236, 246); fill-opacity: 1; stroke-width: 0;"/></g><g class="layer-below"><g class="imagelayer"/><g class="shapelayer"/></g><g class="cartesianlayer"><g class="subplot xy"><g class="layer-subplot"><g class="shapelayer"/><g class="imagelayer"/></g><g class="minor-gridlayer"><g class="x"/><g class="y"/></g><g class="gridlayer"><g class="x"/><g class="y"><path class="ygrid crisp" transform="translate(0,100.74000000000001)" d="M62,0h888" style="stroke: rgb(255, 255, 255); stroke-opacity: 1; stroke-width: 1px;"/><path class="ygrid crisp" transform="translate(0,71.02)" d="M62,0h888" style="stroke: rgb(255, 255, 255); stroke-opacity: 1; stroke-width: 1px;"/></g></g><g class="zerolinelayer"><path class="yzl zl crisp" transform="translate(0,130.45999999999998)" d="M62,0h888" style="stroke: rgb(255, 255, 255); stroke-opacity: 1; stroke-width: 2px;"/></g><g class="layer-between"><g class="shapelayer"/><g class="imagelayer"/></g><path class="xlines-below"/><path class="ylines-below"/><g class="overlines-below"/><g class="xaxislayer-below"/><g class="yaxislayer-below"/><g class="overaxes-below"/><g class="overplot"><g class="xy" transform="translate(62,50)" clip-path="url(#clip7386d2xyplot)"><g class="barlayer mlayer"><g class="trace bars" style="opacity: 0.7;"><g class="points"><g class="point"><path d="M17.76,80.46V4.02H159.84V80.46Z" style="vector-effect: none; opacity: 1; stroke-width: 0.5px; fill: rgb(1, 115, 178); fill-opacity: 1; stroke: rgb(229, 236, 246); stroke-opacity: 1;"/><text class="bartext bartext-outside" text-anchor="middle" data-notex="1" x="0" y="0" style="font-family: 'Open Sans', verdana, arial, sans-serif; font-size: 12px; fill: rgb(42, 63, 95); fill-opacity: 1; white-space: pre;" transform="translate(88.6359375,-1.9800000000000004)">2572</text></g></g></g><g class="trace bars" style="opacity: 0.7;"><g class="points"><g class="point"><path d="M195.36,80.46V41.08H337.44V80.46Z" style="vector-effect: none; opacity: 1; stroke-width: 0.5px; fill: rgb(1, 115, 178); fill-opacity: 1; stroke: rgb(229, 236, 246); stroke-opacity: 1;"/><text class="bartext bartext-outside" text-anchor="middle" data-notex="1" x="0" y="0" style="font-family: 'Open Sans', verdana, arial, sans-serif; font-size: 12px; fill: rgb(42, 63, 95); fill-opacity: 1; white-space: pre;" transform="translate(266.2359375,35.08)">1325</text></g></g></g><g class="trace bars" style="opacity: 0.7;"><g class="points"><g class="point"><path d="M372.96,80.46V42.3H515.04V80.46Z" style="vector-effect: none; opacity: 1; stroke-width: 0.5px; fill: rgb(1, 115, 178); fill-opacity: 1; stroke: rgb(229, 236, 246); stroke-opacity: 1;"/><text class="bartext bartext-outside" text-anchor="middle" data-notex="1" x="0" y="0" style="font-family: 'Open Sans', verdana, arial, sans-serif; font-size: 12px; fill: rgb(42, 63, 95); fill-opacity: 1; white-space: pre;" transform="translate(443.8359375,36.3)">1284</text></g></g></g><g class="trace bars" style="opacity: 0.7;"><g class="points"><g class="point"><path d="M550.56,80.46V43.88H692.64V80.46Z" style="vector-effect: none; opacity: 1; stroke-width: 0.5px; fill: rgb(1, 115, 178); fill-opacity: 1; stroke: rgb(229, 236, 246); stroke-opacity: 1;"/><text class="bartext bartext-outside" text-anchor="middle" data-notex="1" x="0" y="0" style="font-family: 'Open Sans', verdana, arial, sans-serif; font-size: 12px; fill: rgb(42, 63, 95); fill-opacity: 1; white-space: pre;" transform="translate(621.4359374999999,37.88)">1231</text></g></g></g><g class="trace bars" style="opacity: 0.7;"><g class="points"><g class="point"><path d="M728.16,80.46V60.79H870.24V80.46Z" style="vector-effect: none; opacity: 1; stroke-width: 0.5px; fill: rgb(1, 115, 178); fill-opacity: 1; stroke: rgb(229, 236, 246); stroke-opacity: 1;"/><text class="bartext bartext-outside" text-anchor="middle" data-notex="1" x="0" y="0" style="font-family: 'Open Sans', verdana, arial, sans-serif; font-size: 12px; fill: rgb(42, 63, 95); fill-opacity: 1; white-space: pre;" transform="translate(799.0359375,54.79)">662</text></g></g></g></g></g></g><path class="xlines-above crisp" d="M0,0" style="fill: none;"/><path class="ylines-above crisp" d="M0,0" style="fill: none;"/><g class="overlines-above"/><g class="xaxislayer-above"/><g class="yaxislayer-above"><g class="ytick"><text text-anchor="end" x="61" y="4.199999999999999" transform="translate(0,130.45999999999998)" style="font-family: 'Open Sans', verdana, arial, sans-serif; font-size: 12px; fill: rgb(42, 63, 95); fill-opacity: 1; white-space: pre; opacity: 1;">0</text></g><g class="ytick"><text text-anchor="end" x="61" y="4.199999999999999" style="font-family: 'Open Sans', verdana, arial, sans-serif; font-size: 12px; fill: rgb(42, 63, 95); fill-opacity: 1; white-space: pre; opacity: 1;" transform="translate(0,100.74000000000001)">1000</text></g><g class="ytick"><text text-anchor="end" x="61" y="4.199999999999999" style="font-family: 'Open Sans', verdana, arial, sans-serif; font-size: 12px; fill: rgb(42, 63, 95); fill-opacity: 1; white-space: pre; opacity: 1;" transform="translate(0,71.02)">2000</text></g></g><g class="overaxes-above"/></g><g class="subplot x2y2"><g class="layer-subplot"><g class="shapelayer"/><g class="imagelayer"/></g><g class="minor-gridlayer"><g class="x2"/><g class="y2"><path class="y2grid crisp" transform="translate(0,220.60999999999996)" d="M62,0h888" style="stroke: rgb(238, 242, 249); stroke-opacity: 1; stroke-width: 1px;"/><path class="y2grid crisp" transform="translate(0,180.37999999999997)" d="M62,0h888" style="stroke: rgb(238, 242, 249); stroke-opacity: 1; stroke-width: 1px;"/></g></g><g class="gridlayer"><g class="x2"/><g class="y2"><path class="y2grid crisp" transform="translate(0,200.48999999999995)" d="M62,0h888" style="stroke: rgb(255, 255, 255); stroke-opacity: 1; stroke-width: 1px;"/></g></g><g class="zerolinelayer"><path class="y2zl zl crisp" transform="translate(0,240.71999999999997)" d="M62,0h888" style="stroke: rgb(255, 255, 255); stroke-opacity: 1; stroke-width: 2px;"/></g><g class="layer-between"><g class="shapelayer"/><g class="imagelayer"/></g><path class="xlines-below"/><path class="ylines-below"/><g class="overlines-below"/><g class="xaxislayer-below"/><g class="yaxislayer-below"/><g class="overaxes-below"/><g class="overplot"><g class="x2y2" transform="translate(62,160.25999999999996)" clip-path="url(#clip7386d2x2y2plot)"><g class="barlayer mlayer"><g class="trace bars" style="opacity: 0.7;"><g class="points"><g class="point"><path d="M17.76,80.46V41.55H159.84V80.46Z" style="vector-effect: none; opacity: 1; stroke-width: 0.5px; fill: rgb(222, 143, 5); fill-opacity: 1; stroke: rgb(229, 236, 246); stroke-opacity: 1;"/><text class="bartext bartext-outside" text-anchor="middle" data-notex="1" x="0" y="0" style="font-family: 'Open Sans', verdana, arial, sans-serif; font-size: 12px; fill: rgb(42, 63, 95); fill-opacity: 1; white-space: pre;" transform="translate(88.6359375,35.55)">48.36</text></g></g></g><g class="trace bars" style="opacity: 0.7;"><g class="points"><g class="point"><path d="M195.36,80.46V60.41H337.44V80.46Z" style="vector-effect: none; opacity: 1; stroke-width: 0.5px; fill: rgb(222, 143, 5); fill-opacity: 1; stroke: rgb(229, 236, 246); stroke-opacity: 1;"/><text class="bartext bartext-outside" text-anchor="middle" data-notex="1" x="0" y="0" style="font-family: 'Open Sans', verdana, arial, sans-serif; font-size: 12px; fill: rgb(42, 63, 95); fill-opacity: 1; white-space: pre;" transform="translate(266.2359375,54.41)">24.92</text></g></g></g><g class="trace bars" style="opacity: 0.7;"><g class="points"><g class="point"><path d="M372.96,80.46V61.03H515.04V80.46Z" style="vector-effect: none; opacity: 1; stroke-width: 0.5px; fill: rgb(222, 143, 5); fill-opacity: 1; stroke: rgb(229, 236, 246); stroke-opacity: 1;"/><text class="bartext bartext-outside" text-anchor="middle" data-notex="1" x="0" y="0" style="font-family: 'Open Sans', verdana, arial, sans-serif; font-size: 12px; fill: rgb(42, 63, 95); fill-opacity: 1; white-space: pre;" transform="translate(443.8359375,55.03)">24.14</text></g></g></g><g class="trace bars" style="opacity: 0.7;"><g class="points"><g class="point"><path d="M550.56,80.46V61.84H692.64V80.46Z" style="vector-effect: none; opacity: 1; stroke-width: 0.5px; fill: rgb(222, 143, 5); fill-opacity: 1; stroke: rgb(229, 236, 246); stroke-opacity: 1;"/><text class="bartext bartext-outside" text-anchor="middle" data-notex="1" x="0" y="0" style="font-family: 'Open Sans', verdana, arial, sans-serif; font-size: 12px; fill: rgb(42, 63, 95); fill-opacity: 1; white-space: pre;" transform="translate(621.4359374999999,55.84)">23.15</text></g></g></g><g class="trace bars" style="opacity: 0.7;"><g class="points"><g class="point"><path d="M728.16,80.46V70.44H870.24V80.46Z" style="vector-effect: none; opacity: 1; stroke-width: 0.5px; fill: rgb(222, 143, 5); fill-opacity: 1; stroke: rgb(229, 236, 246); stroke-opacity: 1;"/><text class="bartext bartext-outside" text-anchor="middle" data-notex="1" x="0" y="0" style="font-family: 'Open Sans', verdana, arial, sans-serif; font-size: 12px; fill: rgb(42, 63, 95); fill-opacity: 1; white-space: pre;" transform="translate(799.0359375,64.44)">12.45</text></g></g></g></g></g></g><path class="xlines-above crisp" d="M0,0" style="fill: none;"/><path class="ylines-above crisp" d="M0,0" style="fill: none;"/><g class="overlines-above"/><g class="xaxislayer-above"/><g class="yaxislayer-above"><path class="y2tick ticks crisp" d="M61,0h-5" transform="translate(0,220.60999999999996)" style="stroke: rgb(0, 0, 0); stroke-opacity: 1; stroke-width: 1px;"/><path class="y2tick ticks crisp" d="M61,0h-5" transform="translate(0,180.37999999999997)" style="stroke: rgb(0, 0, 0); stroke-opacity: 1; stroke-width: 1px;"/><g class="y2tick"><text text-anchor="end" x="61" y="4.199999999999999" transform="translate(0,240.71999999999997)" style="font-family: 'Open Sans', verdana, arial, sans-serif; font-size: 12px; fill: rgb(42, 63, 95); fill-opacity: 1; white-space: pre; opacity: 1;">0</text></g><g class="y2tick"><text text-anchor="end" x="61" y="4.199999999999999" style="font-family: 'Open Sans', verdana, arial, sans-serif; font-size: 12px; fill: rgb(42, 63, 95); fill-opacity: 1; white-space: pre; opacity: 1;" transform="translate(0,200.48999999999995)">50</text></g><g class="y2tick"><text text-anchor="end" x="61" y="4.199999999999999" style="font-family: 'Open Sans', verdana, arial, sans-serif; font-size: 12px; fill: rgb(42, 63, 95); fill-opacity: 1; white-space: pre; opacity: 1;" transform="translate(0,160.25999999999996)">100</text></g></g><g class="overaxes-above"/></g><g class="subplot x3y3"><g class="layer-subplot"><g class="shapelayer"/><g class="imagelayer"/></g><g class="minor-gridlayer"><g class="x3"/><g class="y3"/></g><g class="gridlayer"><g class="x3"/><g class="y3"><path class="y3grid crisp" transform="translate(0,621.04)" d="M62,0h888" style="stroke: rgb(255, 255, 255); stroke-opacity: 1; stroke-width: 1px;"/><path class="y3grid crisp" transform="translate(0,575.49)" d="M62,0h888" style="stroke: rgb(255, 255, 255); stroke-opacity: 1; stroke-width: 1px;"/><path class="y3grid crisp" transform="translate(0,484.38)" d="M62,0h888" style="stroke: rgb(255, 255, 255); stroke-opacity: 1; stroke-width: 1px;"/><path class="y3grid crisp" transform="translate(0,438.82)" d="M62,0h888" style="stroke: rgb(255, 255, 255); stroke-opacity: 1; stroke-width: 1px;"/><path class="y3grid crisp" transform="translate(0,393.27)" d="M62,0h888" style="stroke: rgb(255, 255, 255); stroke-opacity: 1; stroke-width: 1px;"/><path class="y3grid crisp" transform="translate(0,347.71)" d="M62,0h888" style="stroke: rgb(255, 255, 255); stroke-opacity: 1; stroke-width: 1px;"/><path class="y3grid crisp" transform="translate(0,302.15999999999997)" d="M62,0h888" style="stroke: rgb(255, 255, 255); stroke-opacity: 1; stroke-width: 1px;"/></g></g><g class="zerolinelayer"><path class="y3zl zl crisp" transform="translate(0,529.9300000000001)" d="M62,0h888" style="stroke: rgb(255, 255, 255); stroke-opacity: 1; stroke-width: 2px;"/></g><g class="layer-between"><g class="shapelayer"/><g class="imagelayer"/></g><path class="xlines-below"/><path class="ylines-below"/><g class="overlines-below"/><g class="xaxislayer-below"/><g class="yaxislayer-below"/><g class="overaxes-below"/><g class="overplot"><g class="x3y3" transform="translate(62,270.52)" clip-path="url(#clip7386d2x3y3plot)"><g class="violinlayer mlayer"><g class="trace violins" style="opacity: 1;"><path class="violin" d="M88.95,348.62Q89.03,347.71 89.08,347.26C89.13,346.81 89.19,346.35 89.26,345.9C89.33,345.44 89.41,344.99 89.49,344.53C89.56,344.08 89.64,343.62 89.71,343.17C89.77,342.72 89.84,342.26 89.88,341.81C89.92,341.36 89.95,340.9 89.96,340.45C89.97,339.99 89.95,339.54 89.92,339.08C89.89,338.63 89.84,338.17 89.79,337.72C89.74,337.27 89.66,336.81 89.6,336.36C89.54,335.9 89.47,335.45 89.41,334.99C89.35,334.54 89.29,334.08 89.24,333.63C89.19,333.18 89.15,332.72 89.12,332.27C89.09,331.82 89.07,331.36 89.05,330.91C89.03,330.45 89.01,330 89,329.54C88.99,329.09 88.99,328.63 88.99,328.18C88.99,327.73 88.99,327.27 89,326.82C89.01,326.36 89.02,325.91 89.04,325.45C89.06,325 89.08,324.54 89.11,324.09C89.14,323.64 89.17,323.18 89.21,322.73C89.25,322.28 89.29,321.82 89.33,321.37C89.37,320.91 89.42,320.46 89.47,320C89.51,319.55 89.56,319.09 89.6,318.64C89.64,318.19 89.69,317.73 89.73,317.28C89.77,316.82 89.81,316.37 89.85,315.91C89.89,315.46 89.93,315 89.98,314.55C90.03,314.1 90.07,313.64 90.13,313.19C90.19,312.73 90.26,312.27 90.34,311.82C90.42,311.36 90.51,310.91 90.63,310.46C90.75,310 90.89,309.55 91.05,309.1C91.21,308.64 91.4,308.19 91.61,307.74C91.82,307.28 92.06,306.82 92.31,306.37C92.57,305.91 92.85,305.46 93.15,305.01C93.45,304.55 93.77,304.1 94.11,303.65C94.46,303.19 94.82,302.73 95.21,302.28C95.61,301.82 96.03,301.37 96.47,300.92C96.92,300.46 97.4,300.01 97.9,299.56C98.41,299.1 98.96,298.65 99.51,298.2C100.08,297.74 100.67,297.28 101.26,296.83C101.85,296.37 102.46,295.92 103.06,295.47C103.65,295.02 104.25,294.57 104.82,294.11C105.38,293.66 105.93,293.2 106.47,292.74C106.99,292.29 107.5,291.84 108,291.38C108.49,290.93 108.96,290.47 109.44,290.02C109.92,289.57 110.39,289.11 110.88,288.66C111.37,288.2 111.87,287.74 112.38,287.29C112.9,286.83 113.44,286.38 113.98,285.93C114.53,285.47 115.1,285.02 115.67,284.57C116.25,284.11 116.85,283.65 117.45,283.2C118.06,282.74 118.68,282.29 119.31,281.84C119.95,281.38 120.59,280.93 121.24,280.48C121.9,280.02 122.58,279.57 123.26,279.12C123.94,278.66 124.65,278.21 125.33,277.75C126.01,277.3 126.69,276.85 127.34,276.39C127.97,275.94 128.6,275.5 129.16,275.03C129.68,274.59 130.18,274.14 130.6,273.66C130.98,273.22 131.33,272.77 131.59,272.3C131.83,271.86 132,271.4 132.12,270.94C132.24,270.49 132.28,270.03 132.31,269.57C132.34,269.12 132.32,268.66 132.31,268.21C132.3,267.76 132.25,267.3 132.22,266.85C132.19,266.4 132.16,265.94 132.14,265.49C132.11,265.03 132.1,264.58 132.07,264.12C132.05,263.67 132.03,263.21 131.99,262.76C131.95,262.31 131.9,261.85 131.82,261.4C131.74,260.94 131.64,260.48 131.5,260.03C131.36,259.57 131.19,259.12 130.99,258.67C130.78,258.21 130.53,257.76 130.26,257.31C129.98,256.85 129.67,256.4 129.35,255.95C129.02,255.49 128.65,255.03 128.28,254.58C127.9,254.12 127.5,253.67 127.09,253.22C126.67,252.76 126.24,252.31 125.8,251.86C125.34,251.4 124.88,250.94 124.39,250.49C123.89,250.03 123.37,249.57 122.82,249.13C122.25,248.67 121.64,248.21 121.01,247.77C120.34,247.3 119.64,246.85 118.9,246.41C118.13,245.94 117.31,245.49 116.47,245.04C115.59,244.57 114.67,244.13 113.74,243.68C112.79,243.22 111.81,242.77 110.85,242.32C109.89,241.86 108.91,241.41 107.96,240.95C107.04,240.5 106.12,240.06 105.25,239.59C104.43,239.15 103.63,238.7 102.88,238.23C102.18,237.79 101.5,237.34 100.88,236.87C100.29,236.43 99.75,235.97 99.24,235.5C98.75,235.06 98.29,234.6 97.86,234.14C97.44,233.69 97.05,233.24 96.67,232.78C96.3,232.33 95.94,231.87 95.59,231.41C95.25,230.96 94.93,230.51 94.61,230.05C94.3,229.6 93.99,229.15 93.71,228.69C93.43,228.24 93.17,227.78 92.93,227.32C92.69,226.87 92.47,226.42 92.26,225.96C92.05,225.51 91.86,225.06 91.69,224.6C91.52,224.15 91.37,223.7 91.23,223.24C91.09,222.79 90.96,222.33 90.84,221.87C90.72,221.42 90.61,220.96 90.51,220.51C90.41,220.06 90.33,219.61 90.25,219.15C90.17,218.7 90.11,218.24 90.05,217.78C89.99,217.33 89.94,216.87 89.9,216.42C89.86,215.97 89.83,215.51 89.81,215.06C89.79,214.61 89.77,214.15 89.76,213.7C89.74,213.24 89.73,212.79 89.72,212.33C89.71,211.88 89.7,211.42 89.69,210.97C89.68,210.52 89.66,210.06 89.64,209.61C89.62,209.15 89.6,208.7 89.57,208.24C89.54,207.79 89.5,207.33 89.46,206.88C89.42,206.43 89.38,205.97 89.34,205.52C89.3,205.07 89.26,204.61 89.22,204.16C89.18,203.7 89.15,203.25 89.12,202.79C89.1,202.34 89.08,201.88 89.07,201.43C89.06,200.98 89.06,200.52 89.06,200.07C89.06,199.61 89.08,199.16 89.1,198.7C89.11,198.25 89.13,197.79 89.15,197.34C89.16,196.89 89.18,196.43 89.19,195.98C89.2,195.53 89.21,195.07 89.21,194.62C89.21,194.16 89.2,193.71 89.18,193.25C89.17,192.8 89.14,192.34 89.12,191.89C89.1,191.44 89.07,190.98 89.04,190.53C89.01,190.07 88.98,189.62 88.96,189.16C88.94,188.71 88.92,188.25 88.9,187.8Q88.88,187.35 88.85,186.44L88.75,186.44Q88.72,187.35 88.7,187.8C88.68,188.25 88.66,188.71 88.64,189.16C88.62,189.62 88.59,190.07 88.56,190.53C88.53,190.98 88.5,191.44 88.48,191.89C88.46,192.34 88.43,192.8 88.42,193.25C88.4,193.71 88.39,194.16 88.39,194.62C88.39,195.07 88.4,195.53 88.41,195.98C88.42,196.43 88.44,196.89 88.45,197.34C88.47,197.79 88.49,198.25 88.5,198.7C88.52,199.16 88.54,199.61 88.54,200.07C88.54,200.52 88.54,200.98 88.53,201.43C88.52,201.88 88.5,202.34 88.48,202.79C88.45,203.25 88.42,203.7 88.38,204.16C88.34,204.61 88.3,205.07 88.26,205.52C88.22,205.97 88.18,206.43 88.14,206.88C88.1,207.33 88.06,207.79 88.03,208.24C88,208.7 87.98,209.15 87.96,209.61C87.94,210.06 87.92,210.52 87.91,210.97C87.9,211.42 87.89,211.88 87.88,212.33C87.87,212.79 87.86,213.24 87.84,213.7C87.83,214.15 87.81,214.61 87.79,215.06C87.77,215.51 87.74,215.97 87.7,216.42C87.66,216.87 87.61,217.33 87.55,217.78C87.49,218.24 87.43,218.7 87.35,219.15C87.27,219.61 87.19,220.06 87.09,220.51C86.99,220.96 86.88,221.42 86.76,221.87C86.64,222.33 86.51,222.79 86.37,223.24C86.23,223.7 86.08,224.15 85.91,224.6C85.74,225.06 85.55,225.51 85.34,225.96C85.13,226.42 84.91,226.87 84.67,227.32C84.43,227.78 84.17,228.24 83.89,228.69C83.61,229.15 83.3,229.6 82.99,230.05C82.67,230.51 82.35,230.96 82.01,231.41C81.66,231.87 81.3,232.33 80.93,232.78C80.55,233.24 80.16,233.69 79.74,234.14C79.31,234.6 78.85,235.06 78.36,235.5C77.85,235.97 77.31,236.43 76.72,236.87C76.1,237.34 75.42,237.79 74.72,238.23C73.97,238.7 73.17,239.15 72.35,239.59C71.48,240.06 70.56,240.5 69.64,240.95C68.69,241.41 67.71,241.86 66.75,242.32C65.79,242.77 64.81,243.22 63.86,243.68C62.93,244.13 62.01,244.57 61.13,245.04C60.29,245.49 59.47,245.94 58.7,246.41C57.96,246.85 57.26,247.3 56.59,247.77C55.96,248.21 55.35,248.67 54.78,249.13C54.23,249.57 53.71,250.03 53.21,250.49C52.72,250.94 52.26,251.4 51.8,251.86C51.36,252.31 50.93,252.76 50.51,253.22C50.1,253.67 49.7,254.12 49.32,254.58C48.95,255.03 48.58,255.49 48.25,255.95C47.93,256.4 47.62,256.85 47.34,257.31C47.07,257.76 46.82,258.21 46.61,258.67C46.41,259.12 46.24,259.57 46.1,260.03C45.96,260.48 45.86,260.94 45.78,261.4C45.7,261.85 45.65,262.31 45.61,262.76C45.57,263.21 45.55,263.67 45.53,264.12C45.5,264.58 45.49,265.03 45.46,265.49C45.44,265.94 45.41,266.4 45.38,266.85C45.35,267.3 45.3,267.76 45.29,268.21C45.28,268.66 45.26,269.12 45.29,269.57C45.32,270.03 45.36,270.49 45.48,270.94C45.6,271.4 45.77,271.86 46.01,272.3C46.27,272.77 46.62,273.22 47,273.66C47.42,274.14 47.92,274.59 48.44,275.03C49,275.5 49.63,275.94 50.26,276.39C50.91,276.85 51.59,277.3 52.27,277.75C52.95,278.21 53.66,278.66 54.34,279.12C55.02,279.57 55.7,280.02 56.36,280.48C57.01,280.93 57.65,281.38 58.29,281.84C58.92,282.29 59.54,282.74 60.15,283.2C60.75,283.65 61.35,284.11 61.93,284.57C62.5,285.02 63.07,285.47 63.62,285.93C64.16,286.38 64.7,286.83 65.22,287.29C65.73,287.74 66.23,288.2 66.72,288.66C67.21,289.11 67.68,289.57 68.16,290.02C68.64,290.47 69.11,290.93 69.6,291.38C70.1,291.84 70.61,292.29 71.13,292.74C71.67,293.2 72.22,293.66 72.78,294.11C73.35,294.57 73.95,295.02 74.54,295.47C75.14,295.92 75.75,296.37 76.34,296.83C76.93,297.28 77.52,297.74 78.09,298.2C78.64,298.65 79.19,299.1 79.7,299.56C80.2,300.01 80.68,300.46 81.13,300.92C81.57,301.37 81.99,301.82 82.39,302.28C82.78,302.73 83.14,303.19 83.49,303.65C83.83,304.1 84.15,304.55 84.45,305.01C84.75,305.46 85.03,305.91 85.29,306.37C85.54,306.82 85.78,307.28 85.99,307.74C86.2,308.19 86.39,308.64 86.55,309.1C86.71,309.55 86.85,310 86.97,310.46C87.09,310.91 87.18,311.36 87.26,311.82C87.34,312.27 87.41,312.73 87.47,313.19C87.53,313.64 87.57,314.1 87.62,314.55C87.67,315 87.71,315.46 87.75,315.91C87.79,316.37 87.83,316.82 87.87,317.28C87.91,317.73 87.96,318.19 88,318.64C88.04,319.09 88.09,319.55 88.13,320C88.18,320.46 88.23,320.91 88.27,321.37C88.31,321.82 88.35,322.28 88.39,322.73C88.43,323.18 88.46,323.64 88.49,324.09C88.52,324.54 88.54,325 88.56,325.45C88.58,325.91 88.59,326.36 88.6,326.82C88.61,327.27 88.61,327.73 88.61,328.18C88.61,328.63 88.61,329.09 88.6,329.54C88.59,330 88.57,330.45 88.55,330.91C88.53,331.36 88.51,331.82 88.48,332.27C88.45,332.72 88.41,333.18 88.36,333.63C88.31,334.08 88.25,334.54 88.19,334.99C88.13,335.45 88.06,335.9 88,336.36C87.94,336.81 87.86,337.27 87.81,337.72C87.76,338.17 87.71,338.63 87.68,339.08C87.65,339.54 87.63,339.99 87.64,340.45C87.65,340.9 87.68,341.36 87.72,341.81C87.76,342.26 87.83,342.72 87.89,343.17C87.96,343.62 88.04,344.08 88.11,344.53C88.19,344.99 88.27,345.44 88.34,345.9C88.41,346.35 88.47,346.81 88.52,347.26Q88.57,347.71 88.65,348.62Z" style="vector-effect: none; stroke-width: 2px; stroke: rgb(0, 0, 0); stroke-opacity: 1; fill: rgb(0, 0, 0); fill-opacity: 0.5;"/><path class="box" d="M77.92,265.96H99.68M77.92,278.38H99.68V253.23H77.92ZM88.8,278.38V315.07M88.8,253.23V216.39" style="vector-effect: non-scaling-stroke; stroke-width: 2px; stroke: rgb(0, 0, 0); stroke-opacity: 1; fill: rgb(0, 0, 0); fill-opacity: 0.5;"/><path class="mean" d="M77.92,266.11H99.68" style="fill: none; vector-effect: non-scaling-stroke; stroke-width: 2px; stroke-dasharray: 4px, 2px; stroke: rgb(255, 0, 0); stroke-opacity: 1;"/><g class="points"><path class="point" transform="translate(88.8,340.41)" d="M3,0A3,3 0 1,1 0,-3A3,3 0 0,1 3,0Z" style="opacity: 1; stroke-width: 0px; fill: rgb(0, 0, 0); fill-opacity: 1;"/><path class="point" transform="translate(88.8,340.41)" d="M3,0A3,3 0 1,1 0,-3A3,3 0 0,1 3,0Z" style="opacity: 1; stroke-width: 0px; fill: rgb(0, 0, 0); fill-opacity: 1;"/><path class="point" transform="translate(88.8,340.41)" d="M3,0A3,3 0 1,1 0,-3A3,3 0 0,1 3,0Z" style="opacity: 1; stroke-width: 0px; fill: rgb(0, 0, 0); fill-opacity: 1;"/><path class="point" transform="translate(88.8,340.41)" d="M3,0A3,3 0 1,1 0,-3A3,3 0 0,1 3,0Z" style="opacity: 1; stroke-width: 0px; fill: rgb(0, 0, 0); fill-opacity: 1;"/><path class="point" transform="translate(88.8,340.41)" d="M3,0A3,3 0 1,1 0,-3A3,3 0 0,1 3,0Z" style="opacity: 1; stroke-width: 0px; fill: rgb(0, 0, 0); fill-opacity: 1;"/><path class="point" transform="translate(88.8,340.41)" d="M3,0A3,3 0 1,1 0,-3A3,3 0 0,1 3,0Z" style="opacity: 1; stroke-width: 0px; fill: rgb(0, 0, 0); fill-opacity: 1;"/><path class="point" transform="translate(88.8,340.41)" d="M3,0A3,3 0 1,1 0,-3A3,3 0 0,1 3,0Z" style="opacity: 1; stroke-width: 0px; fill: rgb(0, 0, 0); fill-opacity: 1;"/><path class="point" transform="translate(88.8,340.41)" d="M3,0A3,3 0 1,1 0,-3A3,3 0 0,1 3,0Z" style="opacity: 1; stroke-width: 0px; fill: rgb(0, 0, 0); fill-opacity: 1;"/><path class="point" transform="translate(88.8,340.41)" d="M3,0A3,3 0 1,1 0,-3A3,3 0 0,1 3,0Z" style="opacity: 1; stroke-width: 0px; fill: rgb(0, 0, 0); fill-opacity: 1;"/><path class="point" transform="translate(88.8,340.41)" d="M3,0A3,3 0 1,1 0,-3A3,3 0 0,1 3,0Z" style="opacity: 1; stroke-width: 0px; fill: rgb(0, 0, 0); fill-opacity: 1;"/><path class="point" transform="translate(88.8,340.41)" d="M3,0A3,3 0 1,1 0,-3A3,3 0 0,1 3,0Z" style="opacity: 1; stroke-width: 0px; fill: rgb(0, 0, 0); fill-opacity: 1;"/><path class="point" transform="translate(88.8,340.41)" d="M3,0A3,3 0 1,1 0,-3A3,3 0 0,1 3,0Z" style="opacity: 1; stroke-width: 0px; fill: rgb(0, 0, 0); fill-opacity: 1;"/><path class="point" transform="translate(88.8,340.41)" d="M3,0A3,3 0 1,1 0,-3A3,3 0 0,1 3,0Z" style="opacity: 1; stroke-width: 0px; fill: rgb(0, 0, 0); fill-opacity: 1;"/><path class="point" transform="translate(88.8,340.41)" d="M3,0A3,3 0 1,1 0,-3A3,3 0 0,1 3,0Z" style="opacity: 1; stroke-width: 0px; fill: rgb(0, 0, 0); fill-opacity: 1;"/><path class="point" transform="translate(88.8,333.76)" d="M3,0A3,3 0 1,1 0,-3A3,3 0 0,1 3,0Z" style="opacity: 1; stroke-width: 0px; fill: rgb(0, 0, 0); fill-opacity: 1;"/><path class="point" transform="translate(88.8,331.11)" d="M3,0A3,3 0 1,1 0,-3A3,3 0 0,1 3,0Z" style="opacity: 1; stroke-width: 0px; fill: rgb(0, 0, 0); fill-opacity: 1;"/><path class="point" transform="translate(88.8,323.94)" d="M3,0A3,3 0 1,1 0,-3A3,3 0 0,1 3,0Z" style="opacity: 1; stroke-width: 0px; fill: rgb(0, 0, 0); fill-opacity: 1;"/><path class="point" transform="translate(88.8,319.35)" d="M3,0A3,3 0 1,1 0,-3A3,3 0 0,1 3,0Z" style="opacity: 1; stroke-width: 0px; fill: rgb(0, 0, 0); fill-opacity: 1;"/><path class="point" transform="translate(88.8,318.68)" d="M3,0A3,3 0 1,1 0,-3A3,3 0 0,1 3,0Z" style="opacity: 1; stroke-width: 0px; fill: rgb(0, 0, 0); fill-opacity: 1;"/><path class="point" transform="translate(88.8,318.68)" d="M3,0A3,3 0 1,1 0,-3A3,3 0 0,1 3,0Z" style="opacity: 1; stroke-width: 0px; fill: rgb(0, 0, 0); fill-opacity: 1;"/><path class="point" transform="translate(88.8,318.68)" d="M3,0A3,3 0 1,1 0,-3A3,3 0 0,1 3,0Z" style="opacity: 1; stroke-width: 0px; fill: rgb(0, 0, 0); fill-opacity: 1;"/><path class="point" transform="translate(88.8,317.04)" d="M3,0A3,3 0 1,1 0,-3A3,3 0 0,1 3,0Z" style="opacity: 1; stroke-width: 0px; fill: rgb(0, 0, 0); fill-opacity: 1;"/><path class="point" transform="translate(88.8,316.79)" d="M3,0A3,3 0 1,1 0,-3A3,3 0 0,1 3,0Z" style="opacity: 1; stroke-width: 0px; fill: rgb(0, 0, 0); fill-opacity: 1;"/><path class="point" transform="translate(88.8,215.08)" d="M3,0A3,3 0 1,1 0,-3A3,3 0 0,1 3,0Z" style="opacity: 1; stroke-width: 0px; fill: rgb(0, 0, 0); fill-opacity: 1;"/><path class="point" transform="translate(88.8,214.06)" d="M3,0A3,3 0 1,1 0,-3A3,3 0 0,1 3,0Z" style="opacity: 1; stroke-width: 0px; fill: rgb(0, 0, 0); fill-opacity: 1;"/><path class="point" transform="translate(88.8,213.86)" d="M3,0A3,3 0 1,1 0,-3A3,3 0 0,1 3,0Z" style="opacity: 1; stroke-width: 0px; fill: rgb(0, 0, 0); fill-opacity: 1;"/><path class="point" transform="translate(88.8,212.52)" d="M3,0A3,3 0 1,1 0,-3A3,3 0 0,1 3,0Z" style="opacity: 1; stroke-width: 0px; fill: rgb(0, 0, 0); fill-opacity: 1;"/><path class="point" transform="translate(88.8,210.8)" d="M3,0A3,3 0 1,1 0,-3A3,3 0 0,1 3,0Z" style="opacity: 1; stroke-width: 0px; fill: rgb(0, 0, 0); fill-opacity: 1;"/><path class="point" transform="translate(88.8,210.25)" d="M3,0A3,3 0 1,1 0,-3A3,3 0 0,1 3,0Z" style="opacity: 1; stroke-width: 0px; fill: rgb(0, 0, 0); fill-opacity: 1;"/><path class="point" transform="translate(88.8,210.25)" d="M3,0A3,3 0 1,1 0,-3A3,3 0 0,1 3,0Z" style="opacity: 1; stroke-width: 0px; fill: rgb(0, 0, 0); fill-opacity: 1;"/><path class="point" transform="translate(88.8,208.67)" d="M3,0A3,3 0 1,1 0,-3A3,3 0 0,1 3,0Z" style="opacity: 1; stroke-width: 0px; fill: rgb(0, 0, 0); fill-opacity: 1;"/><path class="point" transform="translate(88.8,207.8)" d="M3,0A3,3 0 1,1 0,-3A3,3 0 0,1 3,0Z" style="opacity: 1; stroke-width: 0px; fill: rgb(0, 0, 0); fill-opacity: 1;"/><path class="point" transform="translate(88.8,207.2)" d="M3,0A3,3 0 1,1 0,-3A3,3 0 0,1 3,0Z" style="opacity: 1; stroke-width: 0px; fill: rgb(0, 0, 0); fill-opacity: 1;"/><path class="point" transform="translate(88.8,207.2)" d="M3,0A3,3 0 1,1 0,-3A3,3 0 0,1 3,0Z" style="opacity: 1; stroke-width: 0px; fill: rgb(0, 0, 0); fill-opacity: 1;"/><path class="point" transform="translate(88.8,206.74)" d="M3,0A3,3 0 1,1 0,-3A3,3 0 0,1 3,0Z" style="opacity: 1; stroke-width: 0px; fill: rgb(0, 0, 0); fill-opacity: 1;"/><path class="point" transform="translate(88.8,194.94)" d="M3,0A3,3 0 1,1 0,-3A3,3 0 0,1 3,0Z" style="opacity: 1; stroke-width: 0px; fill: rgb(0, 0, 0); fill-opacity: 1;"/><path class="point" transform="translate(88.8,194.65)" d="M3,0A3,3 0 1,1 0,-3A3,3 0 0,1 3,0Z" style="opacity: 1; stroke-width: 0px; fill: rgb(0, 0, 0); fill-opacity: 1;"/><path class="point" transform="translate(88.8,194.65)" d="M3,0A3,3 0 1,1 0,-3A3,3 0 0,1 3,0Z" style="opacity: 1; stroke-width: 0px; fill: rgb(0, 0, 0); fill-opacity: 1;"/><path class="point" transform="translate(88.8,194.65)" d="M3,0A3,3 0 1,1 0,-3A3,3 0 0,1 3,0Z" style="opacity: 1; stroke-width: 0px; fill: rgb(0, 0, 0); fill-opacity: 1;"/><path class="point" transform="translate(88.8,194.65)" d="M3,0A3,3 0 1,1 0,-3A3,3 0 0,1 3,0Z" style="opacity: 1; stroke-width: 0px; fill: rgb(0, 0, 0); fill-opacity: 1;"/></g></g><g class="trace violins" style="opacity: 1;"><path class="violin" d="M266.42,350.8Q266.42,349.25 266.43,348.48C266.44,347.71 266.45,346.94 266.46,346.17C266.47,345.4 266.47,344.62 266.48,343.85C266.49,343.08 266.5,342.3 266.51,341.53C266.52,340.76 266.53,339.99 266.54,339.22C266.55,338.45 266.55,337.67 266.56,336.9C266.56,336.13 266.57,335.35 266.57,334.58C266.57,333.81 266.57,333.04 266.58,332.27C266.59,331.5 266.6,330.72 266.61,329.95C266.62,329.18 266.63,328.4 266.65,327.63C266.67,326.86 266.68,326.08 266.71,325.31C266.74,324.54 266.77,323.77 266.81,323C266.85,322.23 266.89,321.45 266.93,320.68C266.98,319.91 267.03,319.13 267.08,318.36C267.13,317.59 267.19,316.82 267.24,316.05C267.3,315.28 267.35,314.5 267.41,313.73C267.47,312.96 267.52,312.18 267.58,311.41C267.64,310.64 267.7,309.87 267.76,309.1C267.82,308.33 267.88,307.55 267.95,306.78C268.02,306.01 268.09,305.23 268.16,304.46C268.23,303.69 268.31,302.92 268.39,302.15C268.47,301.38 268.56,300.6 268.66,299.83C268.76,299.06 268.86,298.28 268.97,297.51C269.08,296.74 269.19,295.97 269.32,295.2C269.45,294.43 269.58,293.65 269.73,292.88C269.88,292.11 270.04,291.33 270.21,290.56C270.38,289.79 270.56,289.02 270.75,288.25C270.94,287.48 271.14,286.7 271.35,285.93C271.57,285.15 271.8,284.38 272.04,283.61C272.29,282.84 272.54,282.07 272.82,281.3C273.1,280.52 273.4,279.75 273.73,278.98C274.07,278.2 274.42,277.42 274.82,276.66C275.23,275.88 275.68,275.11 276.18,274.35C276.7,273.56 277.26,272.79 277.88,272.03C278.52,271.24 279.22,270.47 279.97,269.71C280.75,268.92 281.61,268.16 282.49,267.4C283.41,266.61 284.38,265.84 285.38,265.08C286.41,264.29 287.5,263.52 288.59,262.76C289.71,261.98 290.86,261.22 292.01,260.45C293.18,259.67 294.38,258.9 295.56,258.13C296.75,257.36 297.95,256.59 299.12,255.81C300.27,255.04 301.44,254.29 302.53,253.5C303.58,252.74 304.62,251.98 305.54,251.18C306.4,250.43 307.24,249.67 307.89,248.86C308.49,248.12 309.02,247.35 309.36,246.55C309.68,245.8 309.86,245.01 309.91,244.23C309.96,243.46 309.83,242.67 309.68,241.91C309.52,241.13 309.23,240.37 308.97,239.6C308.71,238.82 308.39,238.06 308.13,237.28C307.87,236.51 307.62,235.74 307.42,234.96C307.22,234.19 307.07,233.41 306.94,232.64C306.81,231.87 306.72,231.1 306.64,230.33C306.55,229.56 306.5,228.78 306.43,228.01C306.36,227.24 306.29,226.46 306.21,225.69C306.13,224.92 306.04,224.15 305.95,223.38C305.85,222.61 305.76,221.83 305.64,221.06C305.52,220.29 305.39,219.51 305.21,218.74C305.03,217.96 304.83,217.19 304.55,216.43C304.26,215.65 303.92,214.87 303.51,214.11C303.08,213.32 302.56,212.54 301.99,211.79C301.39,211 300.7,210.24 299.99,209.48C299.25,208.69 298.43,207.93 297.61,207.16C296.77,206.38 295.89,205.61 295.03,204.84C294.17,204.07 293.29,203.31 292.46,202.53C291.64,201.77 290.83,201 290.07,200.21C289.33,199.45 288.63,198.68 287.97,197.89C287.34,197.13 286.75,196.36 286.2,195.58C285.67,194.82 285.19,194.04 284.74,193.26C284.3,192.49 283.9,191.72 283.51,190.94C283.12,190.17 282.76,189.4 282.39,188.63C282.01,187.86 281.65,187.08 281.26,186.31C280.87,185.53 280.47,184.76 280.04,183.99C279.61,183.21 279.15,182.45 278.69,181.68C278.22,180.9 277.73,180.13 277.24,179.36C276.75,178.59 276.24,177.81 275.75,177.04C275.26,176.27 274.77,175.51 274.31,174.73C273.86,173.96 273.41,173.19 273.01,172.41C272.61,171.64 272.24,170.87 271.9,170.09C271.57,169.32 271.26,168.56 270.98,167.78C270.71,167.01 270.47,166.24 270.25,165.46C270.03,164.69 269.85,163.91 269.67,163.14C269.5,162.37 269.35,161.6 269.2,160.83C269.05,160.06 268.92,159.28 268.79,158.51C268.66,157.74 268.55,156.96 268.43,156.19C268.31,155.42 268.2,154.65 268.09,153.88C267.98,153.11 267.89,152.33 267.79,151.56C267.7,150.79 267.6,150.01 267.52,149.24C267.44,148.47 267.36,147.7 267.3,146.93C267.24,146.16 267.18,145.38 267.14,144.61C267.1,143.84 267.07,143.06 267.04,142.29C267.01,141.52 266.99,140.74 266.98,139.97C266.97,139.2 266.98,138.43 266.98,137.66C266.98,136.89 267,136.11 267.01,135.34C267.02,134.57 267.04,133.79 267.06,133.02C267.08,132.25 267.1,131.48 267.11,130.71C267.13,129.94 267.14,129.16 267.15,128.39C267.16,127.62 267.17,126.84 267.16,126.07C267.15,125.3 267.14,124.53 267.12,123.76C267.1,122.99 267.08,122.21 267.05,121.44C267.02,120.67 266.99,119.89 266.96,119.12C266.93,118.35 266.89,117.58 266.85,116.81C266.81,116.04 266.77,115.26 266.74,114.49C266.71,113.72 266.68,112.94 266.65,112.17C266.62,111.4 266.58,110.63 266.56,109.86C266.53,109.09 266.52,108.31 266.5,107.54C266.48,106.77 266.47,105.99 266.46,105.22Q266.45,104.45 266.43,102.91L266.37,102.91Q266.35,104.45 266.34,105.22C266.33,105.99 266.32,106.77 266.3,107.54C266.28,108.31 266.27,109.09 266.24,109.86C266.22,110.63 266.18,111.4 266.15,112.17C266.12,112.94 266.09,113.72 266.06,114.49C266.03,115.26 265.99,116.04 265.95,116.81C265.91,117.58 265.87,118.35 265.84,119.12C265.81,119.89 265.78,120.67 265.75,121.44C265.72,122.21 265.7,122.99 265.68,123.76C265.66,124.53 265.65,125.3 265.64,126.07C265.63,126.84 265.64,127.62 265.65,128.39C265.66,129.16 265.67,129.94 265.69,130.71C265.7,131.48 265.72,132.25 265.74,133.02C265.76,133.79 265.78,134.57 265.79,135.34C265.8,136.11 265.82,136.89 265.82,137.66C265.82,138.43 265.83,139.2 265.82,139.97C265.81,140.74 265.79,141.52 265.76,142.29C265.73,143.06 265.7,143.84 265.66,144.61C265.62,145.38 265.56,146.16 265.5,146.93C265.44,147.7 265.36,148.47 265.28,149.24C265.2,150.01 265.1,150.79 265.01,151.56C264.91,152.33 264.82,153.11 264.71,153.88C264.6,154.65 264.49,155.42 264.37,156.19C264.25,156.96 264.14,157.74 264.01,158.51C263.88,159.28 263.75,160.06 263.6,160.83C263.45,161.6 263.3,162.37 263.13,163.14C262.95,163.91 262.77,164.69 262.55,165.46C262.33,166.24 262.09,167.01 261.82,167.78C261.54,168.56 261.23,169.32 260.9,170.09C260.56,170.87 260.19,171.64 259.79,172.41C259.39,173.19 258.94,173.96 258.49,174.73C258.03,175.51 257.54,176.27 257.05,177.04C256.56,177.81 256.05,178.59 255.56,179.36C255.07,180.13 254.58,180.9 254.11,181.68C253.65,182.45 253.19,183.21 252.76,183.99C252.33,184.76 251.93,185.53 251.54,186.31C251.15,187.08 250.79,187.86 250.41,188.63C250.04,189.4 249.68,190.17 249.29,190.94C248.9,191.72 248.5,192.49 248.06,193.26C247.61,194.04 247.13,194.82 246.6,195.58C246.05,196.36 245.46,197.13 244.83,197.89C244.17,198.68 243.47,199.45 242.73,200.21C241.97,201 241.16,201.77 240.34,202.53C239.51,203.31 238.63,204.07 237.77,204.84C236.91,205.61 236.03,206.38 235.19,207.16C234.37,207.93 233.55,208.69 232.81,209.48C232.1,210.24 231.41,211 230.81,211.79C230.24,212.54 229.72,213.32 229.29,214.11C228.88,214.87 228.54,215.65 228.25,216.43C227.97,217.19 227.77,217.96 227.59,218.74C227.41,219.51 227.28,220.29 227.16,221.06C227.04,221.83 226.95,222.61 226.85,223.38C226.76,224.15 226.67,224.92 226.59,225.69C226.51,226.46 226.44,227.24 226.37,228.01C226.3,228.78 226.25,229.56 226.16,230.33C226.08,231.1 225.99,231.87 225.86,232.64C225.73,233.41 225.58,234.19 225.38,234.96C225.18,235.74 224.93,236.51 224.67,237.28C224.41,238.06 224.09,238.82 223.83,239.6C223.57,240.37 223.28,241.13 223.12,241.91C222.97,242.67 222.84,243.46 222.89,244.23C222.94,245.01 223.12,245.8 223.44,246.55C223.78,247.35 224.31,248.12 224.91,248.86C225.56,249.67 226.4,250.43 227.26,251.18C228.18,251.98 229.22,252.74 230.27,253.5C231.36,254.29 232.53,255.04 233.68,255.81C234.85,256.59 236.05,257.36 237.24,258.13C238.42,258.9 239.62,259.67 240.79,260.45C241.94,261.22 243.09,261.98 244.21,262.76C245.3,263.52 246.39,264.29 247.42,265.08C248.42,265.84 249.39,266.61 250.31,267.4C251.19,268.16 252.05,268.92 252.83,269.71C253.58,270.47 254.28,271.24 254.92,272.03C255.54,272.79 256.1,273.56 256.62,274.35C257.12,275.11 257.57,275.88 257.98,276.66C258.38,277.42 258.73,278.2 259.07,278.98C259.4,279.75 259.7,280.52 259.98,281.3C260.26,282.07 260.51,282.84 260.76,283.61C261,284.38 261.23,285.15 261.45,285.93C261.66,286.7 261.86,287.48 262.05,288.25C262.24,289.02 262.42,289.79 262.59,290.56C262.76,291.33 262.92,292.11 263.07,292.88C263.22,293.65 263.35,294.43 263.48,295.2C263.61,295.97 263.72,296.74 263.83,297.51C263.94,298.28 264.04,299.06 264.14,299.83C264.24,300.6 264.33,301.38 264.41,302.15C264.49,302.92 264.57,303.69 264.64,304.46C264.71,305.23 264.78,306.01 264.85,306.78C264.92,307.55 264.98,308.33 265.04,309.1C265.1,309.87 265.16,310.64 265.22,311.41C265.28,312.18 265.33,312.96 265.39,313.73C265.45,314.5 265.5,315.28 265.56,316.05C265.61,316.82 265.67,317.59 265.72,318.36C265.77,319.13 265.82,319.91 265.87,320.68C265.91,321.45 265.95,322.23 265.99,323C266.03,323.77 266.06,324.54 266.09,325.31C266.12,326.08 266.13,326.86 266.15,327.63C266.17,328.4 266.18,329.18 266.19,329.95C266.2,330.72 266.21,331.5 266.22,332.27C266.23,333.04 266.23,333.81 266.23,334.58C266.23,335.35 266.24,336.13 266.24,336.9C266.25,337.67 266.25,338.45 266.26,339.22C266.27,339.99 266.28,340.76 266.29,341.53C266.3,342.3 266.31,343.08 266.32,343.85C266.33,344.62 266.33,345.4 266.34,346.17C266.35,346.94 266.36,347.71 266.37,348.48Q266.38,349.25 266.38,350.8Z" style="vector-effect: none; stroke-width: 2px; stroke: rgb(0, 0, 0); stroke-opacity: 1; fill: rgb(0, 0, 0); fill-opacity: 0.5;"/><path class="box" d="M255.52,230.1H277.28M255.52,247.78H277.28V210.25H255.52ZM266.4,247.78V301.36M266.4,210.25V154.59" style="vector-effect: non-scaling-stroke; stroke-width: 2px; stroke: rgb(0, 0, 0); stroke-opacity: 1; fill: rgb(0, 0, 0); fill-opacity: 0.5;"/><path class="mean" d="M255.52,228.92H277.28" style="fill: none; vector-effect: non-scaling-stroke; stroke-width: 2px; stroke-dasharray: 4px, 2px; stroke: rgb(255, 0, 0); stroke-opacity: 1;"/><g class="points"><path class="point" transform="translate(266.4,336.81)" d="M3,0A3,3 0 1,1 0,-3A3,3 0 0,1 3,0Z" style="opacity: 1; stroke-width: 0px; fill: rgb(0, 0, 0); fill-opacity: 1;"/><path class="point" transform="translate(266.4,323.09)" d="M3,0A3,3 0 1,1 0,-3A3,3 0 0,1 3,0Z" style="opacity: 1; stroke-width: 0px; fill: rgb(0, 0, 0); fill-opacity: 1;"/><path class="point" transform="translate(266.4,315.07)" d="M3,0A3,3 0 1,1 0,-3A3,3 0 0,1 3,0Z" style="opacity: 1; stroke-width: 0px; fill: rgb(0, 0, 0); fill-opacity: 1;"/><path class="point" transform="translate(266.4,314.42)" d="M3,0A3,3 0 1,1 0,-3A3,3 0 0,1 3,0Z" style="opacity: 1; stroke-width: 0px; fill: rgb(0, 0, 0); fill-opacity: 1;"/><path class="point" transform="translate(266.4,313.49)" d="M3,0A3,3 0 1,1 0,-3A3,3 0 0,1 3,0Z" style="opacity: 1; stroke-width: 0px; fill: rgb(0, 0, 0); fill-opacity: 1;"/><path class="point" transform="translate(266.4,309.38)" d="M3,0A3,3 0 1,1 0,-3A3,3 0 0,1 3,0Z" style="opacity: 1; stroke-width: 0px; fill: rgb(0, 0, 0); fill-opacity: 1;"/><path class="point" transform="translate(266.4,309.38)" d="M3,0A3,3 0 1,1 0,-3A3,3 0 0,1 3,0Z" style="opacity: 1; stroke-width: 0px; fill: rgb(0, 0, 0); fill-opacity: 1;"/><path class="point" transform="translate(266.4,307.05)" d="M3,0A3,3 0 1,1 0,-3A3,3 0 0,1 3,0Z" style="opacity: 1; stroke-width: 0px; fill: rgb(0, 0, 0); fill-opacity: 1;"/><path class="point" transform="translate(266.4,304.97)" d="M3,0A3,3 0 1,1 0,-3A3,3 0 0,1 3,0Z" style="opacity: 1; stroke-width: 0px; fill: rgb(0, 0, 0); fill-opacity: 1;"/><path class="point" transform="translate(266.4,304.97)" d="M3,0A3,3 0 1,1 0,-3A3,3 0 0,1 3,0Z" style="opacity: 1; stroke-width: 0px; fill: rgb(0, 0, 0); fill-opacity: 1;"/><path class="point" transform="translate(266.4,151.91)" d="M3,0A3,3 0 1,1 0,-3A3,3 0 0,1 3,0Z" style="opacity: 1; stroke-width: 0px; fill: rgb(0, 0, 0); fill-opacity: 1;"/><path class="point" transform="translate(266.4,150.57)" d="M3,0A3,3 0 1,1 0,-3A3,3 0 0,1 3,0Z" style="opacity: 1; stroke-width: 0px; fill: rgb(0, 0, 0); fill-opacity: 1;"/><path class="point" transform="translate(266.4,143.52)" d="M3,0A3,3 0 1,1 0,-3A3,3 0 0,1 3,0Z" style="opacity: 1; stroke-width: 0px; fill: rgb(0, 0, 0); fill-opacity: 1;"/><path class="point" transform="translate(266.4,142.29)" d="M3,0A3,3 0 1,1 0,-3A3,3 0 0,1 3,0Z" style="opacity: 1; stroke-width: 0px; fill: rgb(0, 0, 0); fill-opacity: 1;"/><path class="point" transform="translate(266.4,133.87)" d="M3,0A3,3 0 1,1 0,-3A3,3 0 0,1 3,0Z" style="opacity: 1; stroke-width: 0px; fill: rgb(0, 0, 0); fill-opacity: 1;"/><path class="point" transform="translate(266.4,128.97)" d="M3,0A3,3 0 1,1 0,-3A3,3 0 0,1 3,0Z" style="opacity: 1; stroke-width: 0px; fill: rgb(0, 0, 0); fill-opacity: 1;"/><path class="point" transform="translate(266.4,127.41)" d="M3,0A3,3 0 1,1 0,-3A3,3 0 0,1 3,0Z" style="opacity: 1; stroke-width: 0px; fill: rgb(0, 0, 0); fill-opacity: 1;"/><path class="point" transform="translate(266.4,126.67)" d="M3,0A3,3 0 1,1 0,-3A3,3 0 0,1 3,0Z" style="opacity: 1; stroke-width: 0px; fill: rgb(0, 0, 0); fill-opacity: 1;"/><path class="point" transform="translate(266.4,125.96)" d="M3,0A3,3 0 1,1 0,-3A3,3 0 0,1 3,0Z" style="opacity: 1; stroke-width: 0px; fill: rgb(0, 0, 0); fill-opacity: 1;"/><path class="point" transform="translate(266.4,119.14)" d="M3,0A3,3 0 1,1 0,-3A3,3 0 0,1 3,0Z" style="opacity: 1; stroke-width: 0px; fill: rgb(0, 0, 0); fill-opacity: 1;"/><path class="point" transform="translate(266.4,116.9)" d="M3,0A3,3 0 1,1 0,-3A3,3 0 0,1 3,0Z" style="opacity: 1; stroke-width: 0px; fill: rgb(0, 0, 0); fill-opacity: 1;"/></g></g><g class="trace violins" style="opacity: 1;"><path class="violin" d="M444.02,356.71Q444.03,354.99 444.04,354.13C444.05,353.27 444.05,352.41 444.06,351.55C444.07,350.69 444.08,349.83 444.09,348.97C444.1,348.11 444.12,347.25 444.14,346.39C444.16,345.53 444.17,344.67 444.19,343.81C444.21,342.95 444.24,342.09 444.26,341.23C444.29,340.37 444.31,339.51 444.34,338.65C444.37,337.79 444.41,336.93 444.44,336.07C444.48,335.21 444.51,334.35 444.55,333.49C444.59,332.63 444.63,331.77 444.67,330.91C444.71,330.05 444.74,329.19 444.77,328.33C444.8,327.47 444.83,326.61 444.86,325.75C444.89,324.89 444.91,324.03 444.93,323.17C444.95,322.31 444.97,321.45 444.99,320.59C445.01,319.73 445.03,318.87 445.05,318.01C445.07,317.15 445.09,316.29 445.11,315.43C445.13,314.57 445.16,313.71 445.18,312.85C445.21,311.99 445.23,311.13 445.26,310.27C445.29,309.41 445.32,308.55 445.35,307.69C445.38,306.83 445.4,305.97 445.43,305.11C445.46,304.25 445.49,303.39 445.52,302.53C445.55,301.67 445.58,300.81 445.61,299.95C445.64,299.09 445.68,298.23 445.71,297.37C445.75,296.51 445.77,295.65 445.82,294.79C445.86,293.93 445.92,293.08 445.98,292.22C446.04,291.36 446.1,290.5 446.18,289.64C446.26,288.78 446.35,287.92 446.45,287.06C446.55,286.2 446.66,285.34 446.8,284.48C446.94,283.62 447.09,282.76 447.27,281.9C447.45,281.04 447.66,280.18 447.9,279.32C448.15,278.46 448.41,277.59 448.74,276.74C449.07,275.87 449.45,275.01 449.88,274.16C450.32,273.29 450.82,272.43 451.36,271.58C451.92,270.71 452.54,269.85 453.2,269C453.88,268.13 454.62,267.27 455.38,266.42C456.17,265.55 457.01,264.69 457.86,263.84C458.73,262.97 459.64,262.11 460.56,261.26C461.49,260.39 462.46,259.54 463.42,258.68C464.39,257.82 465.39,256.96 466.36,256.1C467.33,255.24 468.31,254.39 469.25,253.52C470.17,252.67 471.1,251.82 471.94,250.94C472.75,250.1 473.54,249.24 474.23,248.36C474.89,247.52 475.5,246.66 476.03,245.78C476.53,244.94 476.96,244.07 477.34,243.2C477.71,242.35 478,241.48 478.31,240.62C478.62,239.76 478.87,238.9 479.18,238.04C479.49,237.18 479.81,236.31 480.17,235.46C480.54,234.59 480.96,233.73 481.39,232.88C481.83,232.01 482.32,231.16 482.8,230.3C483.28,229.44 483.79,228.58 484.26,227.72C484.72,226.86 485.18,226.01 485.58,225.14C485.97,224.29 486.33,223.44 486.61,222.57C486.89,221.72 487.11,220.86 487.26,219.99C487.41,219.14 487.49,218.27 487.51,217.41C487.53,216.55 487.49,215.69 487.39,214.83C487.29,213.97 487.13,213.1 486.93,212.25C486.72,211.38 486.46,210.52 486.16,209.67C485.85,208.8 485.5,207.94 485.11,207.09C484.71,206.22 484.27,205.36 483.8,204.51C483.32,203.64 482.79,202.78 482.24,201.93C481.68,201.06 481.1,200.2 480.48,199.35C479.85,198.48 479.19,197.62 478.51,196.77C477.82,195.9 477.09,195.04 476.35,194.19C475.59,193.32 474.81,192.46 474.01,191.61C473.19,190.74 472.34,189.89 471.49,189.03C470.63,188.17 469.74,187.31 468.86,186.45C467.97,185.59 467.07,184.73 466.18,183.87C465.29,183.01 464.4,182.16 463.53,181.29C462.67,180.43 461.81,179.58 461,178.71C460.2,177.86 459.43,177 458.7,176.13C457.99,175.28 457.3,174.42 456.67,173.55C456.06,172.7 455.48,171.84 454.95,170.97C454.44,170.12 453.97,169.26 453.54,168.39C453.12,167.54 452.76,166.68 452.42,165.81C452.08,164.96 451.79,164.09 451.51,163.23C451.24,162.37 451.01,161.51 450.77,160.65C450.54,159.79 450.32,158.93 450.1,158.07C449.88,157.21 449.68,156.35 449.47,155.49C449.26,154.63 449.04,153.77 448.83,152.91C448.62,152.05 448.4,151.2 448.19,150.34C447.98,149.48 447.77,148.62 447.57,147.76C447.38,146.9 447.19,146.04 447.02,145.18C446.85,144.32 446.69,143.46 446.55,142.6C446.41,141.74 446.29,140.88 446.18,140.02C446.07,139.16 445.98,138.3 445.9,137.44C445.82,136.58 445.76,135.72 445.69,134.86C445.63,134 445.57,133.14 445.51,132.28C445.45,131.42 445.4,130.56 445.35,129.7C445.3,128.84 445.25,127.98 445.2,127.12C445.15,126.26 445.11,125.4 445.07,124.54C445.03,123.68 444.99,122.82 444.96,121.96C444.93,121.1 444.9,120.24 444.87,119.38C444.85,118.52 444.83,117.66 444.81,116.8C444.79,115.94 444.78,115.08 444.77,114.22C444.76,113.36 444.76,112.5 444.75,111.64C444.75,110.78 444.74,109.92 444.74,109.06C444.74,108.2 444.73,107.34 444.73,106.48C444.73,105.62 444.73,104.76 444.72,103.9C444.71,103.04 444.7,102.18 444.68,101.32C444.66,100.46 444.64,99.6 444.61,98.74C444.58,97.88 444.55,97.02 444.52,96.16C444.49,95.3 444.45,94.44 444.41,93.58C444.37,92.72 444.34,91.86 444.3,91C444.27,90.14 444.23,89.28 444.2,88.42C444.17,87.56 444.14,86.7 444.12,85.84C444.1,84.98 444.08,84.12 444.07,83.26C444.06,82.4 444.05,81.55 444.04,80.69C444.03,79.83 444.03,78.97 444.02,78.11C444.02,77.25 444.01,76.39 444.01,75.53C444.01,74.67 444,73.81 444,72.95C444,72.09 444,71.23 444,70.37C444,69.51 444,68.65 444,67.79C444,66.93 444,66.07 444,65.21C444,64.35 444,63.49 444,62.63C444,61.77 444,60.91 444,60.05C444,59.19 444,58.33 444,57.47C444,56.61 444,55.75 444,54.89C444,54.03 444.01,53.17 444.01,52.31C444.01,51.45 444.02,50.59 444.02,49.73C444.02,48.87 444.02,48.01 444.03,47.15C444.04,46.29 444.05,45.43 444.06,44.57C444.07,43.71 444.07,42.85 444.08,41.99C444.09,41.13 444.1,40.27 444.11,39.41C444.12,38.55 444.13,37.69 444.13,36.83C444.13,35.97 444.13,35.11 444.13,34.25C444.13,33.39 444.13,32.53 444.13,31.67C444.13,30.81 444.12,29.95 444.11,29.09C444.1,28.23 444.09,27.37 444.08,26.51C444.07,25.65 444.07,24.79 444.06,23.93C444.05,23.07 444.04,22.21 444.03,21.35Q444.02,20.49 444.02,18.77L443.98,18.77Q443.98,20.49 443.97,21.35C443.96,22.21 443.95,23.07 443.94,23.93C443.93,24.79 443.93,25.65 443.92,26.51C443.91,27.37 443.9,28.23 443.89,29.09C443.88,29.95 443.87,30.81 443.87,31.67C443.87,32.53 443.87,33.39 443.87,34.25C443.87,35.11 443.87,35.97 443.87,36.83C443.87,37.69 443.88,38.55 443.89,39.41C443.9,40.27 443.91,41.13 443.92,41.99C443.93,42.85 443.93,43.71 443.94,44.57C443.95,45.43 443.96,46.29 443.97,47.15C443.98,48.01 443.98,48.87 443.98,49.73C443.98,50.59 443.99,51.45 443.99,52.31C443.99,53.17 444,54.03 444,54.89C444,55.75 444,56.61 444,57.47C444,58.33 444,59.19 444,60.05C444,60.91 444,61.77 444,62.63C444,63.49 444,64.35 444,65.21C444,66.07 444,66.93 444,67.79C444,68.65 444,69.51 444,70.37C444,71.23 444,72.09 444,72.95C444,73.81 443.99,74.67 443.99,75.53C443.99,76.39 443.98,77.25 443.98,78.11C443.97,78.97 443.97,79.83 443.96,80.69C443.95,81.55 443.94,82.4 443.93,83.26C443.92,84.12 443.9,84.98 443.88,85.84C443.86,86.7 443.83,87.56 443.8,88.42C443.77,89.28 443.73,90.14 443.7,91C443.66,91.86 443.63,92.72 443.59,93.58C443.55,94.44 443.51,95.3 443.48,96.16C443.45,97.02 443.42,97.88 443.39,98.74C443.36,99.6 443.34,100.46 443.32,101.32C443.3,102.18 443.29,103.04 443.28,103.9C443.27,104.76 443.27,105.62 443.27,106.48C443.27,107.34 443.26,108.2 443.26,109.06C443.26,109.92 443.25,110.78 443.25,111.64C443.24,112.5 443.24,113.36 443.23,114.22C443.22,115.08 443.21,115.94 443.19,116.8C443.17,117.66 443.15,118.52 443.13,119.38C443.1,120.24 443.07,121.1 443.04,121.96C443.01,122.82 442.97,123.68 442.93,124.54C442.89,125.4 442.85,126.26 442.8,127.12C442.75,127.98 442.7,128.84 442.65,129.7C442.6,130.56 442.55,131.42 442.49,132.28C442.43,133.14 442.37,134 442.31,134.86C442.24,135.72 442.18,136.58 442.1,137.44C442.02,138.3 441.93,139.16 441.82,140.02C441.71,140.88 441.59,141.74 441.45,142.6C441.31,143.46 441.15,144.32 440.98,145.18C440.81,146.04 440.62,146.9 440.43,147.76C440.23,148.62 440.02,149.48 439.81,150.34C439.6,151.2 439.38,152.05 439.17,152.91C438.96,153.77 438.74,154.63 438.53,155.49C438.32,156.35 438.12,157.21 437.9,158.07C437.68,158.93 437.46,159.79 437.23,160.65C436.99,161.51 436.76,162.37 436.49,163.23C436.21,164.09 435.92,164.96 435.58,165.81C435.24,166.68 434.88,167.54 434.46,168.39C434.03,169.26 433.56,170.12 433.05,170.97C432.52,171.84 431.94,172.7 431.33,173.55C430.7,174.42 430.01,175.28 429.3,176.13C428.57,177 427.8,177.86 427,178.71C426.19,179.58 425.33,180.43 424.47,181.29C423.6,182.16 422.71,183.01 421.82,183.87C420.93,184.73 420.03,185.59 419.14,186.45C418.26,187.31 417.37,188.17 416.51,189.03C415.66,189.89 414.81,190.74 413.99,191.61C413.19,192.46 412.41,193.32 411.65,194.19C410.91,195.04 410.18,195.9 409.49,196.77C408.81,197.62 408.15,198.48 407.52,199.35C406.9,200.2 406.32,201.06 405.76,201.93C405.21,202.78 404.68,203.64 404.2,204.51C403.73,205.36 403.29,206.22 402.89,207.09C402.5,207.94 402.15,208.8 401.84,209.67C401.54,210.52 401.28,211.38 401.07,212.25C400.87,213.1 400.71,213.97 400.61,214.83C400.51,215.69 400.47,216.55 400.49,217.41C400.51,218.27 400.59,219.14 400.74,219.99C400.89,220.86 401.11,221.72 401.39,222.57C401.67,223.44 402.03,224.29 402.42,225.14C402.82,226.01 403.28,226.86 403.74,227.72C404.21,228.58 404.72,229.44 405.2,230.3C405.68,231.16 406.17,232.01 406.61,232.88C407.04,233.73 407.46,234.59 407.83,235.46C408.19,236.31 408.51,237.18 408.82,238.04C409.13,238.9 409.38,239.76 409.69,240.62C410,241.48 410.29,242.35 410.66,243.2C411.04,244.07 411.47,244.94 411.97,245.78C412.5,246.66 413.11,247.52 413.77,248.36C414.46,249.24 415.25,250.1 416.06,250.94C416.9,251.82 417.83,252.67 418.75,253.52C419.69,254.39 420.67,255.24 421.64,256.1C422.61,256.96 423.61,257.82 424.58,258.68C425.54,259.54 426.51,260.39 427.44,261.26C428.36,262.11 429.27,262.97 430.14,263.84C430.99,264.69 431.83,265.55 432.62,266.42C433.38,267.27 434.12,268.13 434.8,269C435.46,269.85 436.08,270.71 436.64,271.58C437.18,272.43 437.68,273.29 438.12,274.16C438.55,275.01 438.93,275.87 439.26,276.74C439.59,277.59 439.85,278.46 440.1,279.32C440.34,280.18 440.55,281.04 440.73,281.9C440.91,282.76 441.06,283.62 441.2,284.48C441.34,285.34 441.45,286.2 441.55,287.06C441.65,287.92 441.74,288.78 441.82,289.64C441.9,290.5 441.96,291.36 442.02,292.22C442.08,293.08 442.14,293.93 442.18,294.79C442.23,295.65 442.25,296.51 442.29,297.37C442.32,298.23 442.36,299.09 442.39,299.95C442.42,300.81 442.45,301.67 442.48,302.53C442.51,303.39 442.54,304.25 442.57,305.11C442.6,305.97 442.62,306.83 442.65,307.69C442.68,308.55 442.71,309.41 442.74,310.27C442.77,311.13 442.79,311.99 442.82,312.85C442.84,313.71 442.87,314.57 442.89,315.43C442.91,316.29 442.93,317.15 442.95,318.01C442.97,318.87 442.99,319.73 443.01,320.59C443.03,321.45 443.05,322.31 443.07,323.17C443.09,324.03 443.11,324.89 443.14,325.75C443.17,326.61 443.2,327.47 443.23,328.33C443.26,329.19 443.29,330.05 443.33,330.91C443.37,331.77 443.41,332.63 443.45,333.49C443.49,334.35 443.52,335.21 443.56,336.07C443.59,336.93 443.63,337.79 443.66,338.65C443.69,339.51 443.71,340.37 443.74,341.23C443.76,342.09 443.79,342.95 443.81,343.81C443.83,344.67 443.84,345.53 443.86,346.39C443.88,347.25 443.9,348.11 443.91,348.97C443.92,349.83 443.93,350.69 443.94,351.55C443.95,352.41 443.95,353.27 443.96,354.13Q443.97,354.99 443.98,356.71Z" style="vector-effect: none; stroke-width: 2px; stroke: rgb(0, 0, 0); stroke-opacity: 1; fill: rgb(0, 0, 0); fill-opacity: 0.5;"/><path class="box" d="M433.12,218.27H454.88M433.12,239.76H454.88V198.49H433.12ZM444,239.76V301.36M444,198.49V138.28" style="vector-effect: non-scaling-stroke; stroke-width: 2px; stroke: rgb(0, 0, 0); stroke-opacity: 1; fill: rgb(0, 0, 0); fill-opacity: 0.5;"/><path class="mean" d="M433.12,218.06H454.88" style="fill: none; vector-effect: non-scaling-stroke; stroke-width: 2px; stroke-dasharray: 4px, 2px; stroke: rgb(255, 0, 0); stroke-opacity: 1;"/><g class="points"><path class="point" transform="translate(444,341.22)" d="M3,0A3,3 0 1,1 0,-3A3,3 0 0,1 3,0Z" style="opacity: 1; stroke-width: 0px; fill: rgb(0, 0, 0); fill-opacity: 1;"/><path class="point" transform="translate(444,328.79)" d="M3,0A3,3 0 1,1 0,-3A3,3 0 0,1 3,0Z" style="opacity: 1; stroke-width: 0px; fill: rgb(0, 0, 0); fill-opacity: 1;"/><path class="point" transform="translate(444,328.79)" d="M3,0A3,3 0 1,1 0,-3A3,3 0 0,1 3,0Z" style="opacity: 1; stroke-width: 0px; fill: rgb(0, 0, 0); fill-opacity: 1;"/><path class="point" transform="translate(444,326.9)" d="M3,0A3,3 0 1,1 0,-3A3,3 0 0,1 3,0Z" style="opacity: 1; stroke-width: 0px; fill: rgb(0, 0, 0); fill-opacity: 1;"/><path class="point" transform="translate(444,325.74)" d="M3,0A3,3 0 1,1 0,-3A3,3 0 0,1 3,0Z" style="opacity: 1; stroke-width: 0px; fill: rgb(0, 0, 0); fill-opacity: 1;"/><path class="point" transform="translate(444,320.33)" d="M3,0A3,3 0 1,1 0,-3A3,3 0 0,1 3,0Z" style="opacity: 1; stroke-width: 0px; fill: rgb(0, 0, 0); fill-opacity: 1;"/><path class="point" transform="translate(444,318.68)" d="M3,0A3,3 0 1,1 0,-3A3,3 0 0,1 3,0Z" style="opacity: 1; stroke-width: 0px; fill: rgb(0, 0, 0); fill-opacity: 1;"/><path class="point" transform="translate(444,315.07)" d="M3,0A3,3 0 1,1 0,-3A3,3 0 0,1 3,0Z" style="opacity: 1; stroke-width: 0px; fill: rgb(0, 0, 0); fill-opacity: 1;"/><path class="point" transform="translate(444,312.02)" d="M3,0A3,3 0 1,1 0,-3A3,3 0 0,1 3,0Z" style="opacity: 1; stroke-width: 0px; fill: rgb(0, 0, 0); fill-opacity: 1;"/><path class="point" transform="translate(444,310.66)" d="M3,0A3,3 0 1,1 0,-3A3,3 0 0,1 3,0Z" style="opacity: 1; stroke-width: 0px; fill: rgb(0, 0, 0); fill-opacity: 1;"/><path class="point" transform="translate(444,309.38)" d="M3,0A3,3 0 1,1 0,-3A3,3 0 0,1 3,0Z" style="opacity: 1; stroke-width: 0px; fill: rgb(0, 0, 0); fill-opacity: 1;"/><path class="point" transform="translate(444,308.65)" d="M3,0A3,3 0 1,1 0,-3A3,3 0 0,1 3,0Z" style="opacity: 1; stroke-width: 0px; fill: rgb(0, 0, 0); fill-opacity: 1;"/><path class="point" transform="translate(444,304.97)" d="M3,0A3,3 0 1,1 0,-3A3,3 0 0,1 3,0Z" style="opacity: 1; stroke-width: 0px; fill: rgb(0, 0, 0); fill-opacity: 1;"/><path class="point" transform="translate(444,136.3)" d="M3,0A3,3 0 1,1 0,-3A3,3 0 0,1 3,0Z" style="opacity: 1; stroke-width: 0px; fill: rgb(0, 0, 0); fill-opacity: 1;"/><path class="point" transform="translate(444,134.18)" d="M3,0A3,3 0 1,1 0,-3A3,3 0 0,1 3,0Z" style="opacity: 1; stroke-width: 0px; fill: rgb(0, 0, 0); fill-opacity: 1;"/><path class="point" transform="translate(444,133.87)" d="M3,0A3,3 0 1,1 0,-3A3,3 0 0,1 3,0Z" style="opacity: 1; stroke-width: 0px; fill: rgb(0, 0, 0); fill-opacity: 1;"/><path class="point" transform="translate(444,131.7)" d="M3,0A3,3 0 1,1 0,-3A3,3 0 0,1 3,0Z" style="opacity: 1; stroke-width: 0px; fill: rgb(0, 0, 0); fill-opacity: 1;"/><path class="point" transform="translate(444,130.61)" d="M3,0A3,3 0 1,1 0,-3A3,3 0 0,1 3,0Z" style="opacity: 1; stroke-width: 0px; fill: rgb(0, 0, 0); fill-opacity: 1;"/><path class="point" transform="translate(444,127.56)" d="M3,0A3,3 0 1,1 0,-3A3,3 0 0,1 3,0Z" style="opacity: 1; stroke-width: 0px; fill: rgb(0, 0, 0); fill-opacity: 1;"/><path class="point" transform="translate(444,126.2)" d="M3,0A3,3 0 1,1 0,-3A3,3 0 0,1 3,0Z" style="opacity: 1; stroke-width: 0px; fill: rgb(0, 0, 0); fill-opacity: 1;"/><path class="point" transform="translate(444,123.56)" d="M3,0A3,3 0 1,1 0,-3A3,3 0 0,1 3,0Z" style="opacity: 1; stroke-width: 0px; fill: rgb(0, 0, 0); fill-opacity: 1;"/><path class="point" transform="translate(444,117.99)" d="M3,0A3,3 0 1,1 0,-3A3,3 0 0,1 3,0Z" style="opacity: 1; stroke-width: 0px; fill: rgb(0, 0, 0); fill-opacity: 1;"/><path class="point" transform="translate(444,116.2)" d="M3,0A3,3 0 1,1 0,-3A3,3 0 0,1 3,0Z" style="opacity: 1; stroke-width: 0px; fill: rgb(0, 0, 0); fill-opacity: 1;"/><path class="point" transform="translate(444,112.48)" d="M3,0A3,3 0 1,1 0,-3A3,3 0 0,1 3,0Z" style="opacity: 1; stroke-width: 0px; fill: rgb(0, 0, 0); fill-opacity: 1;"/><path class="point" transform="translate(444,107.84)" d="M3,0A3,3 0 1,1 0,-3A3,3 0 0,1 3,0Z" style="opacity: 1; stroke-width: 0px; fill: rgb(0, 0, 0); fill-opacity: 1;"/><path class="point" transform="translate(444,103.36)" d="M3,0A3,3 0 1,1 0,-3A3,3 0 0,1 3,0Z" style="opacity: 1; stroke-width: 0px; fill: rgb(0, 0, 0); fill-opacity: 1;"/><path class="point" transform="translate(444,101.82)" d="M3,0A3,3 0 1,1 0,-3A3,3 0 0,1 3,0Z" style="opacity: 1; stroke-width: 0px; fill: rgb(0, 0, 0); fill-opacity: 1;"/><path class="point" transform="translate(444,99.06)" d="M3,0A3,3 0 1,1 0,-3A3,3 0 0,1 3,0Z" style="opacity: 1; stroke-width: 0px; fill: rgb(0, 0, 0); fill-opacity: 1;"/><path class="point" transform="translate(444,95.52)" d="M3,0A3,3 0 1,1 0,-3A3,3 0 0,1 3,0Z" style="opacity: 1; stroke-width: 0px; fill: rgb(0, 0, 0); fill-opacity: 1;"/><path class="point" transform="translate(444,34.26)" d="M3,0A3,3 0 1,1 0,-3A3,3 0 0,1 3,0Z" style="opacity: 1; stroke-width: 0px; fill: rgb(0, 0, 0); fill-opacity: 1;"/></g></g><g class="trace violins" style="opacity: 1;"><path class="violin" d="M621.64,355.43Q621.66,353.78 621.68,352.95C621.7,352.12 621.72,351.29 621.74,350.46C621.76,349.63 621.79,348.81 621.82,347.98C621.85,347.15 621.87,346.33 621.9,345.5C621.92,344.67 621.95,343.85 621.97,343.02C621.99,342.19 622.01,341.37 622.02,340.54C622.03,339.71 622.04,338.89 622.04,338.06C622.04,337.23 622.04,336.4 622.04,335.57C622.04,334.74 622.03,333.92 622.02,333.09C622.02,332.26 622.01,331.44 622.01,330.61C622.01,329.78 622.01,328.96 622.02,328.13C622.03,327.3 622.04,326.48 622.05,325.65C622.06,324.82 622.08,324 622.09,323.17C622.11,322.34 622.12,321.52 622.14,320.69C622.16,319.86 622.17,319.03 622.2,318.2C622.22,317.37 622.25,316.55 622.29,315.72C622.33,314.89 622.38,314.07 622.44,313.24C622.5,312.41 622.58,311.59 622.66,310.76C622.75,309.93 622.85,309.11 622.95,308.28C623.05,307.45 623.17,306.63 623.28,305.8C623.39,304.97 623.52,304.14 623.63,303.31C623.74,302.48 623.85,301.66 623.95,300.83C624.05,300 624.14,299.18 624.23,298.35C624.31,297.52 624.38,296.7 624.46,295.87C624.54,295.04 624.61,294.22 624.69,293.39C624.77,292.56 624.84,291.74 624.94,290.91C625.04,290.08 625.15,289.25 625.28,288.42C625.42,287.59 625.56,286.76 625.75,285.94C625.94,285.11 626.15,284.28 626.4,283.46C626.65,282.63 626.92,281.8 627.23,280.98C627.54,280.15 627.89,279.32 628.27,278.5C628.66,277.67 629.08,276.84 629.53,276.02C629.99,275.18 630.48,274.35 631.01,273.53C631.55,272.69 632.13,271.87 632.74,271.05C633.36,270.21 634.04,269.39 634.72,268.57C635.42,267.74 636.15,266.91 636.89,266.09C637.64,265.26 638.42,264.44 639.2,263.61C639.98,262.78 640.77,261.96 641.55,261.13C642.33,260.3 643.12,259.48 643.9,258.65C644.68,257.82 645.46,256.99 646.25,256.16C647.04,255.33 647.83,254.51 648.62,253.68C649.41,252.85 650.21,252.03 650.98,251.2C651.75,250.38 652.52,249.56 653.24,248.72C653.94,247.9 654.63,247.08 655.25,246.24C655.85,245.43 656.41,244.6 656.9,243.76C657.38,242.94 657.8,242.11 658.17,241.27C658.53,240.45 658.83,239.62 659.12,238.79C659.41,237.97 659.66,237.14 659.92,236.31C660.18,235.48 660.43,234.65 660.7,233.83C660.98,233 661.26,232.17 661.57,231.35C661.88,230.52 662.22,229.7 662.55,228.87C662.88,228.04 663.24,227.21 663.56,226.38C663.87,225.56 664.2,224.73 664.44,223.9C664.68,223.08 664.9,222.25 665.01,221.42C665.12,220.6 665.17,219.76 665.11,218.94C665.05,218.11 664.89,217.28 664.66,216.46C664.42,215.62 664.07,214.79 663.67,213.98C663.26,213.14 662.75,212.31 662.22,211.5C661.67,210.66 661.04,209.83 660.4,209.01C659.74,208.17 659.04,207.35 658.32,206.53C657.59,205.7 656.83,204.87 656.07,204.05C655.3,203.22 654.52,202.4 653.74,201.57C652.96,200.74 652.18,199.92 651.4,199.09C650.62,198.26 649.84,197.44 649.06,196.61C648.29,195.78 647.52,194.95 646.75,194.12C645.99,193.29 645.22,192.47 644.47,191.64C643.72,190.81 642.96,189.99 642.23,189.16C641.5,188.34 640.79,187.51 640.09,186.68C639.4,185.86 638.73,185.03 638.08,184.2C637.44,183.38 636.82,182.55 636.22,181.72C635.63,180.9 635.05,180.06 634.5,179.23C633.96,178.41 633.43,177.58 632.93,176.75C632.43,175.93 631.95,175.1 631.5,174.27C631.06,173.45 630.63,172.62 630.25,171.79C629.87,170.97 629.53,170.14 629.21,169.31C628.9,168.49 628.61,167.66 628.35,166.83C628.09,166 627.87,165.17 627.65,164.34C627.43,163.51 627.24,162.69 627.03,161.86C626.83,161.03 626.62,160.21 626.42,159.38C626.22,158.55 626.02,157.73 625.83,156.9C625.64,156.07 625.44,155.25 625.26,154.42C625.09,153.59 624.92,152.77 624.78,151.94C624.64,151.11 624.51,150.29 624.4,149.46C624.3,148.63 624.22,147.8 624.15,146.97C624.08,146.14 624.03,145.32 623.98,144.49C623.93,143.66 623.9,142.84 623.86,142.01C623.82,141.18 623.78,140.36 623.74,139.53C623.7,138.7 623.65,137.88 623.61,137.05C623.57,136.22 623.53,135.4 623.49,134.57C623.45,133.74 623.41,132.91 623.37,132.08C623.33,131.25 623.3,130.43 623.27,129.6C623.24,128.77 623.22,127.95 623.19,127.12C623.16,126.29 623.13,125.47 623.1,124.64C623.07,123.81 623.04,122.99 623.01,122.16C622.98,121.33 622.94,120.51 622.9,119.68C622.86,118.85 622.82,118.02 622.77,117.19C622.73,116.36 622.68,115.54 622.63,114.71C622.58,113.88 622.54,113.06 622.49,112.23C622.44,111.4 622.39,110.58 622.35,109.75C622.31,108.92 622.27,108.1 622.23,107.27C622.2,106.44 622.17,105.62 622.14,104.79C622.11,103.96 622.08,103.13 622.06,102.3C622.04,101.47 622.03,100.65 622.01,99.82C621.99,98.99 621.97,98.17 621.96,97.34C621.95,96.51 621.94,95.69 621.93,94.86C621.92,94.03 621.91,93.21 621.9,92.38C621.89,91.55 621.88,90.73 621.87,89.9C621.86,89.07 621.85,88.25 621.84,87.42C621.83,86.59 621.82,85.76 621.81,84.93C621.8,84.1 621.78,83.28 621.77,82.45C621.76,81.62 621.74,80.8 621.73,79.97C621.72,79.14 621.7,78.32 621.69,77.49C621.68,76.66 621.67,75.84 621.66,75.01C621.65,74.18 621.65,73.36 621.64,72.53Q621.63,71.7 621.62,70.04L621.58,70.04Q621.57,71.7 621.56,72.53C621.55,73.36 621.55,74.18 621.54,75.01C621.53,75.84 621.52,76.66 621.51,77.49C621.5,78.32 621.48,79.14 621.47,79.97C621.46,80.8 621.44,81.62 621.43,82.45C621.42,83.28 621.4,84.1 621.39,84.93C621.38,85.76 621.37,86.59 621.36,87.42C621.35,88.25 621.34,89.07 621.33,89.9C621.32,90.73 621.31,91.55 621.3,92.38C621.29,93.21 621.28,94.03 621.27,94.86C621.26,95.69 621.25,96.51 621.24,97.34C621.23,98.17 621.21,98.99 621.19,99.82C621.17,100.65 621.16,101.47 621.14,102.3C621.12,103.13 621.09,103.96 621.06,104.79C621.03,105.62 621,106.44 620.97,107.27C620.93,108.1 620.89,108.92 620.85,109.75C620.81,110.58 620.76,111.4 620.71,112.23C620.66,113.06 620.62,113.88 620.57,114.71C620.52,115.54 620.47,116.36 620.43,117.19C620.38,118.02 620.34,118.85 620.3,119.68C620.26,120.51 620.22,121.33 620.19,122.16C620.16,122.99 620.13,123.81 620.1,124.64C620.07,125.47 620.04,126.29 620.01,127.12C619.98,127.95 619.96,128.77 619.93,129.6C619.9,130.43 619.87,131.25 619.83,132.08C619.79,132.91 619.75,133.74 619.71,134.57C619.67,135.4 619.63,136.22 619.59,137.05C619.55,137.88 619.5,138.7 619.46,139.53C619.42,140.36 619.38,141.18 619.34,142.01C619.3,142.84 619.27,143.66 619.22,144.49C619.17,145.32 619.12,146.14 619.05,146.97C618.98,147.8 618.9,148.63 618.8,149.46C618.69,150.29 618.56,151.11 618.42,151.94C618.28,152.77 618.11,153.59 617.94,154.42C617.76,155.25 617.56,156.07 617.37,156.9C617.18,157.73 616.98,158.55 616.78,159.38C616.58,160.21 616.37,161.03 616.17,161.86C615.96,162.69 615.77,163.51 615.55,164.34C615.33,165.17 615.11,166 614.85,166.83C614.59,167.66 614.3,168.49 613.99,169.31C613.67,170.14 613.33,170.97 612.95,171.79C612.57,172.62 612.14,173.45 611.7,174.27C611.25,175.1 610.77,175.93 610.27,176.75C609.77,177.58 609.24,178.41 608.7,179.23C608.15,180.06 607.57,180.9 606.98,181.72C606.38,182.55 605.76,183.38 605.12,184.2C604.47,185.03 603.8,185.86 603.11,186.68C602.41,187.51 601.7,188.34 600.97,189.16C600.24,189.99 599.48,190.81 598.73,191.64C597.98,192.47 597.21,193.29 596.45,194.12C595.68,194.95 594.91,195.78 594.14,196.61C593.36,197.44 592.58,198.26 591.8,199.09C591.02,199.92 590.24,200.74 589.46,201.57C588.68,202.4 587.9,203.22 587.13,204.05C586.37,204.87 585.61,205.7 584.88,206.53C584.16,207.35 583.46,208.17 582.8,209.01C582.16,209.83 581.53,210.66 580.98,211.5C580.45,212.31 579.94,213.14 579.53,213.98C579.13,214.79 578.78,215.62 578.54,216.46C578.31,217.28 578.15,218.11 578.09,218.94C578.03,219.76 578.08,220.6 578.19,221.42C578.3,222.25 578.52,223.08 578.76,223.9C579,224.73 579.33,225.56 579.64,226.38C579.96,227.21 580.32,228.04 580.65,228.87C580.98,229.7 581.32,230.52 581.63,231.35C581.94,232.17 582.22,233 582.5,233.83C582.77,234.65 583.02,235.48 583.28,236.31C583.54,237.14 583.79,237.97 584.08,238.79C584.37,239.62 584.67,240.45 585.03,241.27C585.4,242.11 585.82,242.94 586.3,243.76C586.79,244.6 587.35,245.43 587.95,246.24C588.57,247.08 589.26,247.9 589.96,248.72C590.68,249.56 591.45,250.38 592.22,251.2C592.99,252.03 593.79,252.85 594.58,253.68C595.37,254.51 596.16,255.33 596.95,256.16C597.74,256.99 598.52,257.82 599.3,258.65C600.08,259.48 600.87,260.3 601.65,261.13C602.43,261.96 603.22,262.78 604,263.61C604.78,264.44 605.56,265.26 606.31,266.09C607.05,266.91 607.78,267.74 608.48,268.57C609.16,269.39 609.84,270.21 610.46,271.05C611.07,271.87 611.65,272.69 612.19,273.53C612.72,274.35 613.21,275.18 613.67,276.02C614.12,276.84 614.54,277.67 614.93,278.5C615.31,279.32 615.66,280.15 615.97,280.98C616.28,281.8 616.55,282.63 616.8,283.46C617.05,284.28 617.26,285.11 617.45,285.94C617.64,286.76 617.78,287.59 617.92,288.42C618.05,289.25 618.16,290.08 618.26,290.91C618.36,291.74 618.43,292.56 618.51,293.39C618.59,294.22 618.66,295.04 618.74,295.87C618.82,296.7 618.89,297.52 618.97,298.35C619.06,299.18 619.15,300 619.25,300.83C619.35,301.66 619.46,302.48 619.57,303.31C619.68,304.14 619.81,304.97 619.92,305.8C620.03,306.63 620.15,307.45 620.25,308.28C620.35,309.11 620.45,309.93 620.54,310.76C620.62,311.59 620.7,312.41 620.76,313.24C620.82,314.07 620.87,314.89 620.91,315.72C620.95,316.55 620.98,317.37 621,318.2C621.03,319.03 621.04,319.86 621.06,320.69C621.08,321.52 621.09,322.34 621.11,323.17C621.12,324 621.14,324.82 621.15,325.65C621.16,326.48 621.17,327.3 621.18,328.13C621.19,328.96 621.19,329.78 621.19,330.61C621.19,331.44 621.18,332.26 621.18,333.09C621.17,333.92 621.16,334.74 621.16,335.57C621.16,336.4 621.16,337.23 621.16,338.06C621.16,338.89 621.17,339.71 621.18,340.54C621.19,341.37 621.21,342.19 621.23,343.02C621.25,343.85 621.28,344.67 621.3,345.5C621.33,346.33 621.35,347.15 621.38,347.98C621.41,348.81 621.44,349.63 621.46,350.46C621.48,351.29 621.5,352.12 621.52,352.95Q621.54,353.78 621.56,355.43Z" style="vector-effect: none; stroke-width: 2px; stroke: rgb(0, 0, 0); stroke-opacity: 1; fill: rgb(0, 0, 0); fill-opacity: 0.5;"/><path class="box" d="M610.72,222.9H632.48M610.72,243.81H632.48V204.13H610.72ZM621.6,243.81V302.2M621.6,204.13V146.97" style="vector-effect: non-scaling-stroke; stroke-width: 2px; stroke: rgb(0, 0, 0); stroke-opacity: 1; fill: rgb(0, 0, 0); fill-opacity: 0.5;"/><path class="mean" d="M610.72,222.6H632.48" style="fill: none; vector-effect: non-scaling-stroke; stroke-width: 2px; stroke-dasharray: 4px, 2px; stroke: rgb(255, 0, 0); stroke-opacity: 1;"/><g class="points"><path class="point" transform="translate(621.6,340.41)" d="M3,0A3,3 0 1,1 0,-3A3,3 0 0,1 3,0Z" style="opacity: 1; stroke-width: 0px; fill: rgb(0, 0, 0); fill-opacity: 1;"/><path class="point" transform="translate(621.6,340.41)" d="M3,0A3,3 0 1,1 0,-3A3,3 0 0,1 3,0Z" style="opacity: 1; stroke-width: 0px; fill: rgb(0, 0, 0); fill-opacity: 1;"/><path class="point" transform="translate(621.6,336.81)" d="M3,0A3,3 0 1,1 0,-3A3,3 0 0,1 3,0Z" style="opacity: 1; stroke-width: 0px; fill: rgb(0, 0, 0); fill-opacity: 1;"/><path class="point" transform="translate(621.6,322.29)" d="M3,0A3,3 0 1,1 0,-3A3,3 0 0,1 3,0Z" style="opacity: 1; stroke-width: 0px; fill: rgb(0, 0, 0); fill-opacity: 1;"/><path class="point" transform="translate(621.6,322.29)" d="M3,0A3,3 0 1,1 0,-3A3,3 0 0,1 3,0Z" style="opacity: 1; stroke-width: 0px; fill: rgb(0, 0, 0); fill-opacity: 1;"/><path class="point" transform="translate(621.6,318.19)" d="M3,0A3,3 0 1,1 0,-3A3,3 0 0,1 3,0Z" style="opacity: 1; stroke-width: 0px; fill: rgb(0, 0, 0); fill-opacity: 1;"/><path class="point" transform="translate(621.6,307.05)" d="M3,0A3,3 0 1,1 0,-3A3,3 0 0,1 3,0Z" style="opacity: 1; stroke-width: 0px; fill: rgb(0, 0, 0); fill-opacity: 1;"/><path class="point" transform="translate(621.6,305.61)" d="M3,0A3,3 0 1,1 0,-3A3,3 0 0,1 3,0Z" style="opacity: 1; stroke-width: 0px; fill: rgb(0, 0, 0); fill-opacity: 1;"/><path class="point" transform="translate(621.6,304.97)" d="M3,0A3,3 0 1,1 0,-3A3,3 0 0,1 3,0Z" style="opacity: 1; stroke-width: 0px; fill: rgb(0, 0, 0); fill-opacity: 1;"/><path class="point" transform="translate(621.6,304.48)" d="M3,0A3,3 0 1,1 0,-3A3,3 0 0,1 3,0Z" style="opacity: 1; stroke-width: 0px; fill: rgb(0, 0, 0); fill-opacity: 1;"/><path class="point" transform="translate(621.6,303.38)" d="M3,0A3,3 0 1,1 0,-3A3,3 0 0,1 3,0Z" style="opacity: 1; stroke-width: 0px; fill: rgb(0, 0, 0); fill-opacity: 1;"/><path class="point" transform="translate(621.6,144.08)" d="M3,0A3,3 0 1,1 0,-3A3,3 0 0,1 3,0Z" style="opacity: 1; stroke-width: 0px; fill: rgb(0, 0, 0); fill-opacity: 1;"/><path class="point" transform="translate(621.6,143.52)" d="M3,0A3,3 0 1,1 0,-3A3,3 0 0,1 3,0Z" style="opacity: 1; stroke-width: 0px; fill: rgb(0, 0, 0); fill-opacity: 1;"/><path class="point" transform="translate(621.6,143.28)" d="M3,0A3,3 0 1,1 0,-3A3,3 0 0,1 3,0Z" style="opacity: 1; stroke-width: 0px; fill: rgb(0, 0, 0); fill-opacity: 1;"/><path class="point" transform="translate(621.6,142.96)" d="M3,0A3,3 0 1,1 0,-3A3,3 0 0,1 3,0Z" style="opacity: 1; stroke-width: 0px; fill: rgb(0, 0, 0); fill-opacity: 1;"/><path class="point" transform="translate(621.6,142.05)" d="M3,0A3,3 0 1,1 0,-3A3,3 0 0,1 3,0Z" style="opacity: 1; stroke-width: 0px; fill: rgb(0, 0, 0); fill-opacity: 1;"/><path class="point" transform="translate(621.6,141.68)" d="M3,0A3,3 0 1,1 0,-3A3,3 0 0,1 3,0Z" style="opacity: 1; stroke-width: 0px; fill: rgb(0, 0, 0); fill-opacity: 1;"/><path class="point" transform="translate(621.6,139.91)" d="M3,0A3,3 0 1,1 0,-3A3,3 0 0,1 3,0Z" style="opacity: 1; stroke-width: 0px; fill: rgb(0, 0, 0); fill-opacity: 1;"/><path class="point" transform="translate(621.6,139.38)" d="M3,0A3,3 0 1,1 0,-3A3,3 0 0,1 3,0Z" style="opacity: 1; stroke-width: 0px; fill: rgb(0, 0, 0); fill-opacity: 1;"/><path class="point" transform="translate(621.6,139.1)" d="M3,0A3,3 0 1,1 0,-3A3,3 0 0,1 3,0Z" style="opacity: 1; stroke-width: 0px; fill: rgb(0, 0, 0); fill-opacity: 1;"/><path class="point" transform="translate(621.6,137.07)" d="M3,0A3,3 0 1,1 0,-3A3,3 0 0,1 3,0Z" style="opacity: 1; stroke-width: 0px; fill: rgb(0, 0, 0); fill-opacity: 1;"/><path class="point" transform="translate(621.6,134.73)" d="M3,0A3,3 0 1,1 0,-3A3,3 0 0,1 3,0Z" style="opacity: 1; stroke-width: 0px; fill: rgb(0, 0, 0); fill-opacity: 1;"/><path class="point" transform="translate(621.6,132.85)" d="M3,0A3,3 0 1,1 0,-3A3,3 0 0,1 3,0Z" style="opacity: 1; stroke-width: 0px; fill: rgb(0, 0, 0); fill-opacity: 1;"/><path class="point" transform="translate(621.6,129.25)" d="M3,0A3,3 0 1,1 0,-3A3,3 0 0,1 3,0Z" style="opacity: 1; stroke-width: 0px; fill: rgb(0, 0, 0); fill-opacity: 1;"/><path class="point" transform="translate(621.6,129.25)" d="M3,0A3,3 0 1,1 0,-3A3,3 0 0,1 3,0Z" style="opacity: 1; stroke-width: 0px; fill: rgb(0, 0, 0); fill-opacity: 1;"/><path class="point" transform="translate(621.6,127.94)" d="M3,0A3,3 0 1,1 0,-3A3,3 0 0,1 3,0Z" style="opacity: 1; stroke-width: 0px; fill: rgb(0, 0, 0); fill-opacity: 1;"/><path class="point" transform="translate(621.6,126.83)" d="M3,0A3,3 0 1,1 0,-3A3,3 0 0,1 3,0Z" style="opacity: 1; stroke-width: 0px; fill: rgb(0, 0, 0); fill-opacity: 1;"/><path class="point" transform="translate(621.6,125.42)" d="M3,0A3,3 0 1,1 0,-3A3,3 0 0,1 3,0Z" style="opacity: 1; stroke-width: 0px; fill: rgb(0, 0, 0); fill-opacity: 1;"/><path class="point" transform="translate(621.6,122.59)" d="M3,0A3,3 0 1,1 0,-3A3,3 0 0,1 3,0Z" style="opacity: 1; stroke-width: 0px; fill: rgb(0, 0, 0); fill-opacity: 1;"/><path class="point" transform="translate(621.6,120.58)" d="M3,0A3,3 0 1,1 0,-3A3,3 0 0,1 3,0Z" style="opacity: 1; stroke-width: 0px; fill: rgb(0, 0, 0); fill-opacity: 1;"/><path class="point" transform="translate(621.6,119.14)" d="M3,0A3,3 0 1,1 0,-3A3,3 0 0,1 3,0Z" style="opacity: 1; stroke-width: 0px; fill: rgb(0, 0, 0); fill-opacity: 1;"/><path class="point" transform="translate(621.6,117.02)" d="M3,0A3,3 0 1,1 0,-3A3,3 0 0,1 3,0Z" style="opacity: 1; stroke-width: 0px; fill: rgb(0, 0, 0); fill-opacity: 1;"/><path class="point" transform="translate(621.6,116.9)" d="M3,0A3,3 0 1,1 0,-3A3,3 0 0,1 3,0Z" style="opacity: 1; stroke-width: 0px; fill: rgb(0, 0, 0); fill-opacity: 1;"/><path class="point" transform="translate(621.6,111.8)" d="M3,0A3,3 0 1,1 0,-3A3,3 0 0,1 3,0Z" style="opacity: 1; stroke-width: 0px; fill: rgb(0, 0, 0); fill-opacity: 1;"/><path class="point" transform="translate(621.6,109.54)" d="M3,0A3,3 0 1,1 0,-3A3,3 0 0,1 3,0Z" style="opacity: 1; stroke-width: 0px; fill: rgb(0, 0, 0); fill-opacity: 1;"/><path class="point" transform="translate(621.6,101.82)" d="M3,0A3,3 0 1,1 0,-3A3,3 0 0,1 3,0Z" style="opacity: 1; stroke-width: 0px; fill: rgb(0, 0, 0); fill-opacity: 1;"/><path class="point" transform="translate(621.6,95.52)" d="M3,0A3,3 0 1,1 0,-3A3,3 0 0,1 3,0Z" style="opacity: 1; stroke-width: 0px; fill: rgb(0, 0, 0); fill-opacity: 1;"/><path class="point" transform="translate(621.6,85.06)" d="M3,0A3,3 0 1,1 0,-3A3,3 0 0,1 3,0Z" style="opacity: 1; stroke-width: 0px; fill: rgb(0, 0, 0); fill-opacity: 1;"/></g></g><g class="trace violins" style="opacity: 1;"><path class="violin" d="M799.23,329.23Q799.25,327.5 799.26,326.63C799.27,325.76 799.28,324.9 799.3,324.03C799.31,323.17 799.33,322.3 799.35,321.44C799.37,320.57 799.39,319.71 799.41,318.84C799.43,317.98 799.46,317.11 799.48,316.25C799.51,315.38 799.53,314.52 799.56,313.65C799.59,312.79 799.62,311.92 799.65,311.06C799.68,310.19 799.72,309.33 799.75,308.46C799.79,307.59 799.82,306.73 799.86,305.86C799.9,305 799.93,304.13 799.97,303.27C800.01,302.4 800.05,301.54 800.09,300.67C800.13,299.81 800.17,298.94 800.22,298.08C800.27,297.21 800.32,296.35 800.38,295.48C800.44,294.62 800.5,293.75 800.59,292.89C800.68,292.02 800.78,291.15 800.9,290.29C801.02,289.42 801.16,288.56 801.33,287.7C801.5,286.83 801.69,285.96 801.92,285.1C802.15,284.23 802.39,283.36 802.7,282.5C803.01,281.63 803.36,280.76 803.77,279.91C804.19,279.03 804.66,278.16 805.2,277.31C805.77,276.43 806.41,275.56 807.12,274.72C807.87,273.83 808.7,272.96 809.6,272.12C810.55,271.23 811.59,270.37 812.67,269.53C813.8,268.64 815.02,267.78 816.25,266.93C817.53,266.05 818.87,265.19 820.21,264.33C821.57,263.46 822.98,262.6 824.37,261.74C825.76,260.87 827.17,260.01 828.55,259.14C829.9,258.28 831.27,257.43 832.56,256.55C833.81,255.7 835.05,254.84 836.19,253.95C837.26,253.11 838.33,252.26 839.22,251.36C840.04,250.53 840.82,249.67 841.39,248.76C841.91,247.93 842.34,247.05 842.56,246.16C842.77,245.31 842.79,244.43 842.71,243.57C842.62,242.7 842.34,241.82 842.04,240.97C841.73,240.09 841.28,239.24 840.88,238.38C840.47,237.51 840.01,236.65 839.61,235.78C839.22,234.92 838.83,234.06 838.5,233.19C838.18,232.33 837.91,231.46 837.67,230.59C837.44,229.73 837.27,228.87 837.09,228C836.92,227.14 836.79,226.27 836.62,225.4C836.45,224.53 836.3,223.66 836.09,222.8C835.88,221.93 835.65,221.06 835.34,220.21C835.03,219.33 834.66,218.46 834.22,217.61C833.77,216.73 833.24,215.87 832.66,215.02C832.06,214.14 831.37,213.27 830.66,212.42C829.93,211.54 829.14,210.69 828.35,209.83C827.55,208.96 826.71,208.1 825.91,207.23C825.12,206.37 824.31,205.51 823.56,204.63C822.83,203.78 822.12,202.92 821.47,202.04C820.84,201.19 820.25,200.32 819.71,199.44C819.18,198.59 818.7,197.72 818.24,196.85C817.79,195.99 817.39,195.12 816.97,194.25C816.56,193.39 816.17,192.52 815.75,191.66C815.33,190.79 814.91,189.92 814.45,189.06C813.99,188.19 813.5,187.32 812.98,186.46C812.45,185.59 811.89,184.73 811.32,183.87C810.74,183 810.13,182.13 809.53,181.27C808.93,180.4 808.31,179.55 807.72,178.68C807.13,177.82 806.54,176.95 806,176.08C805.47,175.22 804.96,174.36 804.5,173.49C804.05,172.63 803.64,171.77 803.29,170.89C802.95,170.03 802.65,169.17 802.4,168.3C802.15,167.44 801.97,166.57 801.8,165.7C801.64,164.84 801.52,163.97 801.41,163.1C801.3,162.24 801.22,161.37 801.14,160.51C801.06,159.64 801,158.78 800.92,157.91C800.85,157.05 800.77,156.18 800.69,155.32C800.61,154.45 800.52,153.59 800.43,152.72C800.34,151.86 800.24,150.99 800.16,150.13C800.08,149.26 800,148.4 799.93,147.53C799.87,146.66 799.81,145.8 799.77,144.93C799.73,144.07 799.71,143.2 799.71,142.34C799.71,141.47 799.73,140.61 799.76,139.74C799.79,138.88 799.84,138.01 799.89,137.15C799.94,136.28 800,135.42 800.06,134.55C800.12,133.69 800.18,132.82 800.23,131.96C800.28,131.09 800.32,130.23 800.34,129.36C800.36,128.49 800.38,127.63 800.37,126.76C800.36,125.9 800.34,125.03 800.31,124.17C800.27,123.3 800.22,122.44 800.16,121.57C800.1,120.71 800.03,119.84 799.97,118.98C799.91,118.11 799.84,117.25 799.78,116.38C799.72,115.52 799.65,114.65 799.6,113.79C799.54,112.92 799.49,112.06 799.45,111.19C799.41,110.33 799.38,109.46 799.35,108.6C799.32,107.73 799.3,106.87 799.28,106Q799.26,105.13 799.24,103.4L799.16,103.4Q799.14,105.13 799.12,106C799.1,106.87 799.08,107.73 799.05,108.6C799.02,109.46 798.99,110.33 798.95,111.19C798.91,112.06 798.86,112.92 798.8,113.79C798.75,114.65 798.68,115.52 798.62,116.38C798.56,117.25 798.49,118.11 798.43,118.98C798.37,119.84 798.3,120.71 798.24,121.57C798.18,122.44 798.13,123.3 798.09,124.17C798.06,125.03 798.04,125.9 798.03,126.76C798.02,127.63 798.04,128.49 798.06,129.36C798.08,130.23 798.12,131.09 798.17,131.96C798.22,132.82 798.28,133.69 798.34,134.55C798.4,135.42 798.46,136.28 798.51,137.15C798.56,138.01 798.61,138.88 798.64,139.74C798.67,140.61 798.69,141.47 798.69,142.34C798.69,143.2 798.67,144.07 798.63,144.93C798.59,145.8 798.53,146.66 798.47,147.53C798.4,148.4 798.32,149.26 798.24,150.13C798.16,150.99 798.06,151.86 797.97,152.72C797.88,153.59 797.79,154.45 797.71,155.32C797.63,156.18 797.55,157.05 797.48,157.91C797.4,158.78 797.34,159.64 797.26,160.51C797.18,161.37 797.1,162.24 796.99,163.1C796.88,163.97 796.76,164.84 796.6,165.7C796.43,166.57 796.25,167.44 796,168.3C795.75,169.17 795.45,170.03 795.11,170.89C794.76,171.77 794.35,172.63 793.9,173.49C793.44,174.36 792.93,175.22 792.4,176.08C791.86,176.95 791.27,177.82 790.68,178.68C790.09,179.55 789.47,180.4 788.87,181.27C788.27,182.13 787.66,183 787.08,183.87C786.51,184.73 785.95,185.59 785.42,186.46C784.9,187.32 784.41,188.19 783.95,189.06C783.49,189.92 783.07,190.79 782.65,191.66C782.23,192.52 781.84,193.39 781.43,194.25C781.01,195.12 780.61,195.99 780.16,196.85C779.7,197.72 779.22,198.59 778.69,199.44C778.15,200.32 777.56,201.19 776.93,202.04C776.28,202.92 775.57,203.78 774.84,204.63C774.09,205.51 773.28,206.37 772.49,207.23C771.69,208.1 770.85,208.96 770.05,209.83C769.26,210.69 768.47,211.54 767.74,212.42C767.03,213.27 766.34,214.14 765.74,215.02C765.16,215.87 764.63,216.73 764.18,217.61C763.74,218.46 763.37,219.33 763.06,220.21C762.75,221.06 762.52,221.93 762.31,222.8C762.1,223.66 761.95,224.53 761.78,225.4C761.61,226.27 761.48,227.14 761.31,228C761.13,228.87 760.96,229.73 760.73,230.59C760.49,231.46 760.22,232.33 759.9,233.19C759.57,234.06 759.18,234.92 758.79,235.78C758.39,236.65 757.93,237.51 757.52,238.38C757.12,239.24 756.67,240.09 756.36,240.97C756.06,241.82 755.78,242.7 755.69,243.57C755.61,244.43 755.63,245.31 755.84,246.16C756.06,247.05 756.49,247.93 757.01,248.76C757.58,249.67 758.36,250.53 759.18,251.36C760.07,252.26 761.14,253.11 762.21,253.95C763.35,254.84 764.59,255.7 765.84,256.55C767.13,257.43 768.5,258.28 769.85,259.14C771.23,260.01 772.64,260.87 774.03,261.74C775.42,262.6 776.83,263.46 778.19,264.33C779.53,265.19 780.87,266.05 782.15,266.93C783.38,267.78 784.6,268.64 785.73,269.53C786.81,270.37 787.85,271.23 788.8,272.12C789.7,272.96 790.53,273.83 791.28,274.72C791.99,275.56 792.63,276.43 793.2,277.31C793.74,278.16 794.21,279.03 794.63,279.91C795.04,280.76 795.39,281.63 795.7,282.5C796.01,283.36 796.25,284.23 796.48,285.1C796.71,285.96 796.9,286.83 797.07,287.7C797.24,288.56 797.38,289.42 797.5,290.29C797.62,291.15 797.72,292.02 797.81,292.89C797.9,293.75 797.96,294.62 798.02,295.48C798.08,296.35 798.13,297.21 798.18,298.08C798.23,298.94 798.27,299.81 798.31,300.67C798.35,301.54 798.39,302.4 798.43,303.27C798.47,304.13 798.5,305 798.54,305.86C798.58,306.73 798.61,307.59 798.65,308.46C798.68,309.33 798.72,310.19 798.75,311.06C798.78,311.92 798.81,312.79 798.84,313.65C798.87,314.52 798.89,315.38 798.92,316.25C798.94,317.11 798.97,317.98 798.99,318.84C799.01,319.71 799.03,320.57 799.05,321.44C799.07,322.3 799.09,323.17 799.1,324.03C799.12,324.9 799.13,325.76 799.14,326.63Q799.15,327.5 799.17,329.23Z" style="vector-effect: none; stroke-width: 2px; stroke: rgb(0, 0, 0); stroke-opacity: 1; fill: rgb(0, 0, 0); fill-opacity: 0.5;"/><path class="box" d="M788.32,231.5H810.08M788.32,248.91H810.08V211.97H788.32ZM799.2,248.91V301.36M799.2,211.97V156.67" style="vector-effect: non-scaling-stroke; stroke-width: 2px; stroke: rgb(0, 0, 0); stroke-opacity: 1; fill: rgb(0, 0, 0); fill-opacity: 0.5;"/><path class="mean" d="M788.32,228.86H810.08" style="fill: none; vector-effect: non-scaling-stroke; stroke-width: 2px; stroke-dasharray: 4px, 2px; stroke: rgb(255, 0, 0); stroke-opacity: 1;"/><g class="points"><path class="point" transform="translate(799.2,313.49)" d="M3,0A3,3 0 1,1 0,-3A3,3 0 0,1 3,0Z" style="opacity: 1; stroke-width: 0px; fill: rgb(0, 0, 0); fill-opacity: 1;"/><path class="point" transform="translate(799.2,154.59)" d="M3,0A3,3 0 1,1 0,-3A3,3 0 0,1 3,0Z" style="opacity: 1; stroke-width: 0px; fill: rgb(0, 0, 0); fill-opacity: 1;"/><path class="point" transform="translate(799.2,154.59)" d="M3,0A3,3 0 1,1 0,-3A3,3 0 0,1 3,0Z" style="opacity: 1; stroke-width: 0px; fill: rgb(0, 0, 0); fill-opacity: 1;"/><path class="point" transform="translate(799.2,133.87)" d="M3,0A3,3 0 1,1 0,-3A3,3 0 0,1 3,0Z" style="opacity: 1; stroke-width: 0px; fill: rgb(0, 0, 0); fill-opacity: 1;"/><path class="point" transform="translate(799.2,128.97)" d="M3,0A3,3 0 1,1 0,-3A3,3 0 0,1 3,0Z" style="opacity: 1; stroke-width: 0px; fill: rgb(0, 0, 0); fill-opacity: 1;"/><path class="point" transform="translate(799.2,127.41)" d="M3,0A3,3 0 1,1 0,-3A3,3 0 0,1 3,0Z" style="opacity: 1; stroke-width: 0px; fill: rgb(0, 0, 0); fill-opacity: 1;"/><path class="point" transform="translate(799.2,126.67)" d="M3,0A3,3 0 1,1 0,-3A3,3 0 0,1 3,0Z" style="opacity: 1; stroke-width: 0px; fill: rgb(0, 0, 0); fill-opacity: 1;"/><path class="point" transform="translate(799.2,125.96)" d="M3,0A3,3 0 1,1 0,-3A3,3 0 0,1 3,0Z" style="opacity: 1; stroke-width: 0px; fill: rgb(0, 0, 0); fill-opacity: 1;"/><path class="point" transform="translate(799.2,119.14)" d="M3,0A3,3 0 1,1 0,-3A3,3 0 0,1 3,0Z" style="opacity: 1; stroke-width: 0px; fill: rgb(0, 0, 0); fill-opacity: 1;"/></g></g></g></g></g><path class="xlines-above crisp" d="M0,0" style="fill: none;"/><path class="ylines-above crisp" d="M0,0" style="fill: none;"/><g class="overlines-above"/><g class="xaxislayer-above"><g class="x3tick"><text text-anchor="middle" x="0" y="659" transform="translate(150.8,0)" style="font-family: 'Open Sans', verdana, arial, sans-serif; font-size: 12px; fill: rgb(42, 63, 95); fill-opacity: 1; white-space: pre; opacity: 1;">Fan</text></g><g class="x3tick"><text text-anchor="middle" x="0" y="659" transform="translate(328.4,0)" style="font-family: 'Open Sans', verdana, arial, sans-serif; font-size: 12px; fill: rgb(42, 63, 95); fill-opacity: 1; white-space: pre; opacity: 1;">Lombardo</text></g><g class="x3tick"><text text-anchor="middle" x="0" y="659" transform="translate(506,0)" style="font-family: 'Open Sans', verdana, arial, sans-serif; font-size: 12px; fill: rgb(42, 63, 95); fill-opacity: 1; white-space: pre; opacity: 1;">eDrug3D</text></g><g class="x3tick"><text text-anchor="middle" x="0" y="659" transform="translate(683.6,0)" style="font-family: 'Open Sans', verdana, arial, sans-serif; font-size: 12px; fill: rgb(42, 63, 95); fill-opacity: 1; white-space: pre; opacity: 1;">DDPD</text></g><g class="x3tick"><text text-anchor="middle" x="0" y="659" transform="translate(861.2,0)" style="font-family: 'Open Sans', verdana, arial, sans-serif; font-size: 12px; fill: rgb(42, 63, 95); fill-opacity: 1; white-space: pre; opacity: 1;">Obach</text></g></g><g class="yaxislayer-above"><g class="y3tick"><text text-anchor="end" x="61" y="4.199999999999999" transform="translate(0,621.04)" style="font-family: 'Open Sans', verdana, arial, sans-serif; font-size: 12px; fill: rgb(42, 63, 95); fill-opacity: 1; white-space: pre; opacity: 1;">2</text></g><g class="y3tick"><text text-anchor="end" x="61" y="4.199999999999999" style="font-family: 'Open Sans', verdana, arial, sans-serif; font-size: 12px; fill: rgb(42, 63, 95); fill-opacity: 1; white-space: pre; opacity: 1;" transform="translate(0,575.49)">1</text></g><g class="y3tick"><text text-anchor="end" x="61" y="4.199999999999999" style="font-family: 'Open Sans', verdana, arial, sans-serif; font-size: 12px; fill: rgb(42, 63, 95); fill-opacity: 1; white-space: pre; opacity: 1;" transform="translate(0,529.9300000000001)">0</text></g><g class="y3tick"><text text-anchor="end" x="61" y="4.199999999999999" style="font-family: 'Open Sans', verdana, arial, sans-serif; font-size: 12px; fill: rgb(42, 63, 95); fill-opacity: 1; white-space: pre; opacity: 1;" transform="translate(0,484.38)">1</text></g><g class="y3tick"><text text-anchor="end" x="61" y="4.199999999999999" style="font-family: 'Open Sans', verdana, arial, sans-serif; font-size: 12px; fill: rgb(42, 63, 95); fill-opacity: 1; white-space: pre; opacity: 1;" transform="translate(0,438.82)">2</text></g><g class="y3tick"><text text-anchor="end" x="61" y="4.199999999999999" style="font-family: 'Open Sans', verdana, arial, sans-serif; font-size: 12px; fill: rgb(42, 63, 95); fill-opacity: 1; white-space: pre; opacity: 1;" transform="translate(0,393.27)">3</text></g><g class="y3tick"><text text-anchor="end" x="61" y="4.199999999999999" style="font-family: 'Open Sans', verdana, arial, sans-serif; font-size: 12px; fill: rgb(42, 63, 95); fill-opacity: 1; white-space: pre; opacity: 1;" transform="translate(0,347.71)">4</text></g><g class="y3tick"><text text-anchor="end" x="61" y="4.199999999999999" style="font-family: 'Open Sans', verdana, arial, sans-serif; font-size: 12px; fill: rgb(42, 63, 95); fill-opacity: 1; white-space: pre; opacity: 1;" transform="translate(0,302.15999999999997)">5</text></g></g><g class="overaxes-above"/></g></g><g class="polarlayer"/><g class="smithlayer"/><g class="ternarylayer"/><g class="geolayer"/><g class="funnelarealayer"/><g class="pielayer"/><g class="iciclelayer"/><g class="treemaplayer"/><g class="sunburstlayer"/><g class="glimages"/><defs id="topdefs-7386d2"><g class="clips"/></defs><g class="layer-above"><g class="imagelayer"/><g class="shapelayer"/></g><g class="infolayer"><g class="g-gtitle"><text class="gtitle" x="500" y="25" text-anchor="middle" dy="0em" style="opacity: 1; font-family: 'Open Sans', verdana, arial, sans-serif; font-size: 24px; fill: rgb(42, 63, 95); fill-opacity: 1; white-space: pre;">[3.2] Distribution of logHL Values Across Data Sources</text></g><g class="g-xtitle"/><g class="g-x2title"/><g class="g-x3title"><text class="x3title" x="506" y="687.7" text-anchor="middle" style="opacity: 1; font-family: 'Open Sans', verdana, arial, sans-serif; font-size: 16px; fill: rgb(42, 63, 95); fill-opacity: 1; white-space: pre;">Data Sources</text></g><g class="g-ytitle"><text class="ytitle" transform="rotate(-90,16.296875,90.23)" x="16.296875" y="90.23" text-anchor="middle" style="opacity: 1; font-family: 'Open Sans', verdana, arial, sans-serif; font-size: 10px; fill: rgb(42, 63, 95); fill-opacity: 1; white-space: pre;">N of Mols</text></g><g class="g-y2title"><text class="y2title" transform="rotate(-90,22.96875,200.48999999999995)" x="22.96875" y="200.48999999999995" text-anchor="middle" style="opacity: 1; font-family: 'Open Sans', verdana, arial, sans-serif; font-size: 10px; fill: rgb(42, 63, 95); fill-opacity: 1; white-space: pre;">% of Unique Mols</text></g><g class="g-y3title"><text class="y3title" transform="rotate(-90,27.2125,458.26)" x="27.2125" y="458.26" text-anchor="middle" style="opacity: 1; font-family: 'Open Sans', verdana, arial, sans-serif; font-size: 16px; fill: rgb(42, 63, 95); fill-opacity: 1; white-space: pre;">logHL value</text></g></g></svg>